<svg width="44" height="44" viewBox="0 0 44 44" fill="none" xmlns="http://www.w3.org/2000/svg">
<path d="M4.13763 0.749982H15.9943C17.8575 0.749982 19.382 2.27442 19.382 4.13761V15.9943C19.382 17.8575 17.8575 19.382 15.9943 19.382H4.13763C2.27443 19.382 0.75 17.8575 0.75 15.9943V4.13761C0.75 2.27442 2.27443 0.749982 4.13763 0.749982Z" stroke="black" stroke-width="1.5" stroke-miterlimit="22.926" stroke-linecap="round" stroke-linejoin="round"/>
<path d="M13.8767 23.7861H15.9943C17.8575 23.7861 19.3819 25.3105 19.3819 27.1737V39.0305C19.3819 40.8937 17.8575 42.4181 15.9943 42.4181H4.13763C2.27435 42.4181 0.75 40.8937 0.75 39.0305V27.1737C0.75 25.3105 2.27435 23.7861 4.13763 23.7861H6.25456" stroke="black" stroke-width="1.5" stroke-miterlimit="22.926" stroke-linecap="round" stroke-linejoin="round"/>
<path d="M27.1735 0.749982H39.0301C40.8934 0.749982 42.4178 2.27442 42.4178 4.13761V15.9943C42.4178 17.8575 40.8934 19.382 39.0301 19.382H27.1735C25.3102 19.382 23.7859 17.8575 23.7859 15.9943V4.13761C23.7859 2.27442 25.3102 0.749982 27.1735 0.749982Z" stroke="black" stroke-width="1.5" stroke-miterlimit="22.926" stroke-linecap="round" stroke-linejoin="round"/>
<path d="M27.1735 23.7861H39.0301C40.8934 23.7861 42.4178 25.3105 42.4178 27.1737V39.0305C42.4178 40.8937 40.8934 42.4181 39.0301 42.4181H27.1735C25.3102 42.4181 23.7859 40.8937 23.7859 39.0305V27.1737C23.7859 25.3105 25.3102 23.7861 27.1735 23.7861Z" stroke="black" stroke-width="1.5" stroke-miterlimit="22.926" stroke-linecap="round" stroke-linejoin="round"/>
<path d="M8.37201 6.67838C8.37201 5.74289 9.13041 4.98456 10.0658 4.98456C11.0013 4.98456 11.7596 5.74289 11.7596 6.67838V8.3722H13.4535C14.389 8.3722 15.1473 9.13052 15.1473 10.066C15.1473 11.0014 14.389 11.7598 13.4535 11.7598H11.7596V13.4536C11.7596 14.3891 11.0013 15.1475 10.0658 15.1475C9.13041 15.1475 8.37201 14.3891 8.37201 13.4536V11.7598H6.67819C5.74278 11.7598 4.98438 11.0014 4.98438 10.066C4.98438 9.13052 5.74278 8.3722 6.67819 8.3722H8.37201V6.67838Z" stroke="black" stroke-width="1.5" stroke-miterlimit="22.926" stroke-linecap="round" stroke-linejoin="round"/>
<path d="M6.67819 34.7958C5.74278 34.7958 4.98438 34.0375 4.98438 33.102C4.98438 32.1665 5.74278 31.4081 6.67819 31.4081H13.4535C14.389 31.4081 15.1473 32.1665 15.1473 33.102C15.1473 34.0375 14.389 34.7958 13.4535 34.7958H6.67819Z" stroke="black" stroke-width="1.5" stroke-miterlimit="22.926" stroke-linecap="round" stroke-linejoin="round"/>
<path d="M29.5088 31.9044C28.8473 31.2428 28.8473 30.1704 29.5088 29.509C30.1704 28.8474 31.2428 28.8474 31.9042 29.509L33.102 30.7067L34.2996 29.509C34.9611 28.8474 36.0336 28.8474 36.6951 29.509C37.3565 30.1704 37.3565 31.2428 36.6951 31.9044L35.4974 33.1021L36.6951 34.2997C37.3565 34.9613 37.3565 36.0337 36.6951 36.6951C36.0336 37.3567 34.9611 37.3567 34.2996 36.6951L33.102 35.4974L31.9042 36.6951C31.2428 37.3567 30.1704 37.3567 29.5088 36.6951C28.8473 36.0337 28.8473 34.9613 29.5088 34.2997L30.7065 33.1021L29.5088 31.9044Z" stroke="black" stroke-width="1.5" stroke-miterlimit="22.926" stroke-linecap="round" stroke-linejoin="round"/>
<path d="M34.2996 6.47286C34.9611 5.81134 36.0336 5.81134 36.695 6.47286C37.3565 7.13438 37.3565 8.20682 36.695 8.86834C34.6012 10.9622 33.9981 11.5652 31.9042 13.6591C31.2427 14.3207 30.1703 14.3207 29.5088 13.6591C28.8473 12.9976 28.8473 11.9252 29.5088 11.2637C31.6026 9.16976 32.2056 8.56676 34.2996 6.47286Z" stroke="black" stroke-width="1.5" stroke-miterlimit="22.926" stroke-linecap="round" stroke-linejoin="round"/>
<path d="M4.1377 19.3819V23.786" stroke="black" stroke-width="1.5" stroke-miterlimit="22.926" stroke-linecap="round" stroke-linejoin="round"/>
<path d="M19.3821 39.0304H23.7862" stroke="black" stroke-width="1.5" stroke-miterlimit="22.926" stroke-linecap="round" stroke-linejoin="round"/>
<path d="M39.0303 23.7861V19.382" stroke="black" stroke-width="1.5" stroke-miterlimit="22.926" stroke-linecap="round" stroke-linejoin="round"/>
<path d="M19.3821 4.1377H23.7862" stroke="black" stroke-width="1.5" stroke-miterlimit="22.926" stroke-linecap="round" stroke-linejoin="round"/>
<path d="M10.0654 23.7861H10.067" stroke="black" stroke-width="1.5" stroke-miterlimit="2.613" stroke-linecap="round" stroke-linejoin="round"/>
</svg>
