<svg width="47" height="47" viewBox="0 0 47 47" fill="none" xmlns="http://www.w3.org/2000/svg">
<path d="M22.4855 14.3346C22.9854 14.3346 23.3911 14.7403 23.3911 15.2402C23.3911 15.7401 22.9854 16.1459 22.4855 16.1459C21.9856 16.1459 21.5798 15.7401 21.5798 15.2402C21.5798 14.7403 21.9856 14.3346 22.4855 14.3346Z" fill="white"/>
<path d="M22.4855 17.9573C22.9854 17.9573 23.3911 18.363 23.3911 18.8629C23.3911 19.3628 22.9854 19.7686 22.4855 19.7686C21.9856 19.7686 21.5798 19.3628 21.5798 18.8629C21.5798 18.363 21.9856 17.9573 22.4855 17.9573Z" fill="white"/>
<path d="M22.4855 14.3346C22.9854 14.3346 23.3911 14.7403 23.3911 15.2402C23.3911 15.7401 22.9854 16.1459 22.4855 16.1459C21.9856 16.1459 21.5798 15.7401 21.5798 15.2402C21.5798 14.7403 21.9856 14.3346 22.4855 14.3346Z" fill="black"/>
<path d="M22.4855 17.9573C22.9854 17.9573 23.3911 18.363 23.3911 18.8629C23.3911 19.3628 22.9854 19.7686 22.4855 19.7686C21.9856 19.7686 21.5798 19.3628 21.5798 18.8629C21.5798 18.363 21.9856 17.9573 22.4855 17.9573Z" fill="black"/>
<path d="M45.3076 9.8064H36.2512V0.749996" stroke="black" stroke-width="1.5" stroke-miterlimit="10" stroke-linecap="round" stroke-linejoin="round"/>
<path d="M23.0288 6.18384H32.6286" stroke="black" stroke-width="1.5" stroke-miterlimit="10" stroke-linecap="round" stroke-linejoin="round"/>
<path d="M23.0288 9.8064H32.6286" stroke="black" stroke-width="1.5" stroke-miterlimit="10" stroke-linecap="round" stroke-linejoin="round"/>
<path d="M18.8628 15.2402C18.8628 19.6217 15.751 23.2769 11.6177 24.1155C11.0326 24.2341 10.4268 24.2966 9.8064 24.2966C4.80455 24.2966 0.75 20.2421 0.75 15.2402C0.75 10.2384 4.80455 6.18383 9.8064 6.18383C10.4268 6.18383 11.0326 6.24632 11.6177 6.36496C15.751 7.20358 18.8628 10.8587 18.8628 15.2402Z" stroke="black" stroke-width="1.5" stroke-miterlimit="10" stroke-linecap="round" stroke-linejoin="round"/>
<path d="M9.8064 20.6741C6.80964 20.6741 4.37256 18.237 4.37256 15.2402" stroke="black" stroke-width="1.5" stroke-miterlimit="10" stroke-linecap="round" stroke-linejoin="round"/>
<path d="M9.80664 6.18383V15.2402H18.863" stroke="black" stroke-width="1.5" stroke-miterlimit="10" stroke-linecap="round" stroke-linejoin="round"/>
<path d="M11.6179 24.1155V43.4962C11.6179 44.4969 12.4285 45.3075 13.4292 45.3075H43.4965C44.4972 45.3075 45.3077 44.4969 45.3077 43.4962V9.80641L36.2513 0.750005H13.4292C12.4285 0.750005 11.6179 1.56055 11.6179 2.56128V6.36497" stroke="black" stroke-width="1.5" stroke-miterlimit="10" stroke-linecap="round" stroke-linejoin="round"/>
<path d="M18.863 37.519C18.863 38.5198 18.0525 39.3303 17.0518 39.3303C16.051 39.3303 15.2405 38.5198 15.2405 37.519C15.2405 36.5183 16.051 35.7078 17.0518 35.7078C17.5517 35.7078 18.0045 35.9106 18.3323 36.2385C18.6602 36.5663 18.863 37.0191 18.863 37.519Z" stroke="black" stroke-width="1.5" stroke-miterlimit="10" stroke-linecap="round" stroke-linejoin="round"/>
<path d="M22.654 31.5545C22.3262 31.2267 22.1233 30.7738 22.1233 30.2739C22.1233 29.2732 22.9338 28.4626 23.9346 28.4626C24.9353 28.4626 25.7459 29.2732 25.7459 30.2739C25.7459 30.7738 25.543 31.2267 25.2151 31.5545C24.8873 31.8823 24.4345 32.0852 23.9346 32.0852C23.4347 32.0852 22.9818 31.8823 22.654 31.5545Z" stroke="black" stroke-width="1.5" stroke-miterlimit="10" stroke-linecap="round" stroke-linejoin="round"/>
<path d="M32.0855 37.519C32.0855 38.5198 31.2749 39.3303 30.2742 39.3303C29.2734 39.3303 28.4629 38.5198 28.4629 37.519C28.4629 37.0191 28.6658 36.5663 28.9936 36.2385C29.3214 35.9106 29.7743 35.7078 30.2742 35.7078C31.2749 35.7078 32.0855 36.5183 32.0855 37.519Z" stroke="black" stroke-width="1.5" stroke-miterlimit="10" stroke-linecap="round" stroke-linejoin="round"/>
<path d="M41.4133 26.6512C41.4133 27.652 40.6028 28.4625 39.6021 28.4625C38.6013 28.4625 37.7908 27.652 37.7908 26.6512C37.7908 25.6505 38.6013 24.84 39.6021 24.84C40.6028 24.84 41.4133 25.6505 41.4133 26.6512Z" stroke="black" stroke-width="1.5" stroke-miterlimit="10" stroke-linecap="round" stroke-linejoin="round"/>
<path d="M18.3323 36.2385L22.654 31.5546" stroke="black" stroke-width="1.5" stroke-miterlimit="10" stroke-linecap="round" stroke-linejoin="round"/>
<path d="M25.2151 31.5546L28.9934 36.2385" stroke="black" stroke-width="1.5" stroke-miterlimit="10" stroke-linecap="round" stroke-linejoin="round"/>
<path d="M31.2791 36.0121L38.5966 28.1584" stroke="black" stroke-width="1.5" stroke-miterlimit="10" stroke-linecap="round" stroke-linejoin="round"/>
<path d="M26.1082 15.2402H39.8739" stroke="black" stroke-width="1.5" stroke-miterlimit="10" stroke-linecap="round" stroke-linejoin="round"/>
<path d="M26.1082 18.8627H39.8739" stroke="black" stroke-width="1.5" stroke-miterlimit="10" stroke-linecap="round" stroke-linejoin="round"/>
</svg>
