<svg width="51" height="51" viewBox="0 0 51 51" fill="none" xmlns="http://www.w3.org/2000/svg">
<path d="M46.7454 28.181V11.1873C46.7454 9.52596 45.3986 8.1792 43.7372 8.1792H6.87164C5.21028 8.1792 3.86353 9.52596 3.86353 11.1873V37.6864" stroke="black" stroke-width="1.5" stroke-miterlimit="10" stroke-linecap="round" stroke-linejoin="round"/>
<path d="M34.7693 37.6862H2.2193C1.40781 37.6862 0.75 38.344 0.75 39.1555V39.1688C0.75 41.8338 2.91036 43.9942 5.57535 43.9942H34.7693" stroke="black" stroke-width="1.5" stroke-miterlimit="10" stroke-linecap="round" stroke-linejoin="round"/>
<path d="M10.9717 26.4458H16.8044" stroke="black" stroke-width="1.5" stroke-miterlimit="10" stroke-linecap="round" stroke-linejoin="round"/>
<path d="M16.8044 32.8177V22.0753H22.8379" stroke="black" stroke-width="1.5" stroke-miterlimit="10" stroke-linecap="round" stroke-linejoin="round"/>
<path d="M22.8376 32.8178V17.1559H28.8712V32.8178" stroke="black" stroke-width="1.5" stroke-miterlimit="10" stroke-linecap="round" stroke-linejoin="round"/>
<path d="M28.8713 21.0707H34.9048" stroke="black" stroke-width="1.5" stroke-miterlimit="10" stroke-linecap="round" stroke-linejoin="round"/>
<path d="M34.905 30.9524V16.9736H40.9386V28.2578" stroke="black" stroke-width="1.5" stroke-miterlimit="10" stroke-linecap="round" stroke-linejoin="round"/>
<path d="M34.7695 33.1759H8.42163" stroke="black" stroke-width="1.5" stroke-miterlimit="10" stroke-linecap="round" stroke-linejoin="round"/>
<path d="M47.3767 49.9678H37.4961C36.0651 49.9678 34.905 48.8078 34.905 47.3768V30.9524C34.905 29.5214 36.0651 28.3613 37.4961 28.3613H47.3767C48.8077 28.3613 49.9678 29.5214 49.9678 30.9524V47.3768C49.9678 48.8078 48.8077 49.9678 47.3767 49.9678Z" stroke="black" stroke-width="1.5" stroke-miterlimit="10" stroke-linecap="round" stroke-linejoin="round"/>
<path d="M40.0181 32.9792H44.7632" stroke="black" stroke-width="1.5" stroke-miterlimit="10" stroke-linecap="round" stroke-linejoin="round"/>
<path d="M10.7705 13.8451V32.8038" stroke="black" stroke-width="1.5" stroke-miterlimit="10" stroke-linecap="round" stroke-linejoin="round"/>
<path d="M43.9646 0.75H46.7452V3.53111" stroke="black" stroke-width="1.5" stroke-miterlimit="10" stroke-linecap="round" stroke-linejoin="round"/>
<path d="M10.7705 21.0707L25.8543 8.17911L31.8879 13.7445L46.3839 1.25769" stroke="black" stroke-width="1.5" stroke-miterlimit="10" stroke-linecap="round" stroke-linejoin="round"/>
<path d="M43.7186 38.7782C43.7186 38.7782 42.9981 38.1136 41.8876 38.4482C40.8679 38.7554 40.6207 40.0852 41.3077 40.6944C41.686 41.03 42.2777 41.1899 43.111 41.5484C44.8409 42.2926 44.2493 44.734 42.4125 44.7462C41.6956 44.751 41.3605 44.7054 40.7307 44.2935" stroke="black" stroke-width="1.5" stroke-miterlimit="10" stroke-linecap="round" stroke-linejoin="round"/>
<path d="M42.4121 44.9563V45.676" stroke="black" stroke-width="1.5" stroke-miterlimit="10" stroke-linecap="round" stroke-linejoin="round"/>
<path d="M42.4121 37.4941V38.2688" stroke="black" stroke-width="1.5" stroke-miterlimit="10" stroke-linecap="round" stroke-linejoin="round"/>
</svg>
