<svg width="44" height="44" viewBox="0 0 44 44" fill="none" xmlns="http://www.w3.org/2000/svg">
<path d="M33.4046 26.5216H10.5328C10.058 26.5216 9.6731 26.1367 9.6731 25.6618V23.3462C9.6731 22.8713 10.058 22.4865 10.5328 22.4865H33.4046C33.8794 22.4865 34.2643 22.8713 34.2643 23.3462V25.6618C34.2643 26.1367 33.8794 26.5216 33.4046 26.5216Z" stroke="black" stroke-width="1.5" stroke-miterlimit="10" stroke-linecap="round" stroke-linejoin="round"/>
<path d="M1.64087 30.7639H42.7399" stroke="black" stroke-width="1.5" stroke-miterlimit="10" stroke-linecap="round" stroke-linejoin="round"/>
<path d="M38.7363 7.63306H39.4516C41.3431 7.63306 42.8764 9.16646 42.8764 11.0579V33.9151C42.8764 35.8067 41.343 37.34 39.4516 37.34H4.17489C2.28341 37.3401 0.75 35.8067 0.75 33.9151V11.0579C0.75 9.16638 2.28341 7.63306 4.17489 7.63306H5.13829" stroke="black" stroke-width="1.5" stroke-miterlimit="10" stroke-linecap="round" stroke-linejoin="round"/>
<path d="M29.3452 37.3401H14.2815V42.6028H29.3452V37.3401Z" stroke="black" stroke-width="1.5" stroke-miterlimit="10" stroke-linecap="round" stroke-linejoin="round"/>
<path d="M10.9177 42.6028H32.9097" stroke="black" stroke-width="1.5" stroke-miterlimit="10" stroke-linecap="round" stroke-linejoin="round"/>
<path d="M38.4882 30.7639V2.46249C38.4882 1.5167 37.7215 0.75 36.7757 0.75H6.85091C5.90513 0.75 5.13843 1.5167 5.13843 2.46249V30.7639H38.4882Z" stroke="black" stroke-width="1.5" stroke-miterlimit="10" stroke-linecap="round" stroke-linejoin="round"/>
<path d="M32.1851 13.1065C31.8869 16.1196 29.345 18.4733 26.2534 18.4733C22.9612 18.4733 20.2925 15.8045 20.2925 12.5124C20.2925 9.31981 22.8024 6.71338 25.9567 6.55872" stroke="black" stroke-width="1.5" stroke-miterlimit="10" stroke-linecap="round" stroke-linejoin="round"/>
<path d="M9.93018 5.52795H15.0476" stroke="black" stroke-width="1.5" stroke-miterlimit="10" stroke-linecap="round" stroke-linejoin="round"/>
<path d="M9.93018 9.50842H13.73" stroke="black" stroke-width="1.5" stroke-miterlimit="10" stroke-linecap="round" stroke-linejoin="round"/>
<path d="M9.93018 13.4886H15.0476" stroke="black" stroke-width="1.5" stroke-miterlimit="10" stroke-linecap="round" stroke-linejoin="round"/>
<path d="M9.93018 17.469H15.0476" stroke="black" stroke-width="1.5" stroke-miterlimit="10" stroke-linecap="round" stroke-linejoin="round"/>
<path d="M33.8162 11.9182C33.5344 8.20574 30.5848 5.23968 26.88 4.93044C26.569 4.90448 26.304 5.15483 26.304 5.46691V11.9528C26.304 12.2498 26.5448 12.4905 26.8417 12.4905H33.2795C33.59 12.4906 33.8397 12.228 33.8162 11.9182Z" stroke="black" stroke-width="1.5" stroke-miterlimit="10" stroke-linecap="round" stroke-linejoin="round"/>
</svg>
