<svg width="42" height="44" viewBox="0 0 42 44" fill="none" xmlns="http://www.w3.org/2000/svg">
<path d="M0.75 36.494V40.6179C0.75 41.9628 1.84035 43.0531 3.18434 43.0531H6.17534H9.5715" stroke="black" stroke-width="1.5" stroke-miterlimit="10" stroke-linecap="round" stroke-linejoin="round"/>
<path d="M0.75 33.5183V20.0469C0.75 18.7522 1.76034 17.6942 3.03538 17.6176V3.89C3.03538 2.15617 4.44151 0.750043 6.17534 0.750043H33.8902" stroke="black" stroke-width="1.5" stroke-miterlimit="10" stroke-linecap="round" stroke-linejoin="round"/>
<path d="M15.8661 4.2089C14.0437 4.2089 12.4536 5.19966 11.6021 6.67116C12.4536 8.14266 14.0437 9.13342 15.8661 9.13342C17.6886 9.13342 19.2786 8.14266 20.1302 6.67116C19.2786 5.19966 17.6886 4.2089 15.8661 4.2089Z" stroke="black" stroke-width="1.5" stroke-miterlimit="10" stroke-linecap="round" stroke-linejoin="round"/>
<path d="M17.7963 4.60267C17.8567 4.78218 17.8888 4.97446 17.8888 5.17406C17.8888 6.17853 17.0744 6.99377 16.0691 6.99377C15.064 6.99377 14.2495 6.17853 14.2495 5.17406C14.2495 4.9085 14.3066 4.65579 14.4096 4.42801" stroke="black" stroke-width="1.5" stroke-miterlimit="10" stroke-linecap="round" stroke-linejoin="round"/>
<path d="M15.866 9.13327L14.3177 12.8761C13.901 13.8831 12.8469 14.4719 11.7709 14.2983C10.9163 14.1605 10.2881 13.4228 10.2881 12.5572V12.4362C10.2881 11.2645 11.4097 10.4186 12.5363 10.7404" stroke="black" stroke-width="1.5" stroke-miterlimit="10" stroke-linecap="round" stroke-linejoin="round"/>
<path d="M17.0503 8.98948V14.5133" stroke="black" stroke-width="1.5" stroke-miterlimit="10" stroke-linecap="round" stroke-linejoin="round"/>
<path d="M23.4292 3.75745V39.9877" stroke="black" stroke-width="1.5" stroke-miterlimit="10" stroke-linecap="round" stroke-linejoin="round"/>
<path d="M32.3881 39.8745H28.4066C27.5989 39.8745 26.9441 39.2198 26.9441 38.4121C26.9441 37.6044 27.5989 36.9496 28.4066 36.9496H35.4544C36.2621 36.9496 36.9169 36.2949 36.9169 35.4873C36.9169 34.6796 36.2621 34.0249 35.4544 34.0249H28.4066C27.5989 34.0249 26.9441 33.3701 26.9441 32.5625C26.9441 31.7548 27.5989 31.1 28.4066 31.1H35.4544C36.2621 31.1 36.9169 30.4453 36.9169 29.6376C36.9169 28.8299 36.2621 28.1752 35.4544 28.1752H32.5013C31.6936 28.1752 31.0389 27.5204 31.0389 26.7127V25.2503" stroke="black" stroke-width="1.5" stroke-miterlimit="10" stroke-linecap="round" stroke-linejoin="round"/>
<path d="M20.653 20.7855L18.8383 18.9708L17.0237 20.7855L15.209 18.9708L13.3944 20.7855L11.5797 18.9708L9.76514 20.7855" stroke="black" stroke-width="1.5" stroke-miterlimit="10" stroke-linecap="round" stroke-linejoin="round"/>
<path d="M20.653 24.7062L18.8383 22.8915L17.0237 24.7062L15.209 22.8915L13.3944 24.7062L11.5797 22.8915L9.76514 24.7062" stroke="black" stroke-width="1.5" stroke-miterlimit="10" stroke-linecap="round" stroke-linejoin="round"/>
<path d="M15.2089 33.5342C14.1146 33.5342 13.2275 32.6471 13.2275 31.5528V29.8546C13.2275 28.7603 14.1146 27.8732 15.2089 27.8732C16.3031 27.8732 17.1902 28.7603 17.1902 29.8546V31.5528C17.1902 32.6471 16.3031 33.5342 15.2089 33.5342Z" stroke="black" stroke-width="1.5" stroke-miterlimit="10" stroke-linecap="round" stroke-linejoin="round"/>
<path d="M15.209 33.5342V39.8745" stroke="black" stroke-width="1.5" stroke-miterlimit="10" stroke-linecap="round" stroke-linejoin="round"/>
<path d="M11.9075 35.1191H18.511" stroke="black" stroke-width="1.5" stroke-miterlimit="10" stroke-linecap="round" stroke-linejoin="round"/>
<path d="M36.6344 10.8518C36.8174 10.3334 36.917 9.77587 36.917 9.19538C36.917 6.441 34.6844 4.20924 31.9308 4.20924C29.1765 4.20924 26.9438 6.441 26.9438 9.19538C26.9438 11.9489 29.1765 14.1815 31.9308 14.1815C33.028 14.1815 34.0426 13.8266 34.8657 13.2265" stroke="black" stroke-width="1.5" stroke-miterlimit="10" stroke-linecap="round" stroke-linejoin="round"/>
<path d="M34.2799 9.1952C34.2799 7.89759 33.2281 6.84572 31.9304 6.84572C30.6329 6.84572 29.5811 7.89759 29.5811 9.1952C29.5811 10.4928 30.6329 11.5447 31.9304 11.5447C33.2281 11.5447 34.2799 10.4928 34.2799 9.1952Z" stroke="black" stroke-width="1.5" stroke-miterlimit="10" stroke-linecap="round" stroke-linejoin="round"/>
<path d="M27.6829 18.4213V21.365" stroke="black" stroke-width="1.5" stroke-miterlimit="10" stroke-linecap="round" stroke-linejoin="round"/>
<path d="M29.8066 18.4213V21.365" stroke="black" stroke-width="1.5" stroke-miterlimit="10" stroke-linecap="round" stroke-linejoin="round"/>
<path d="M31.9304 18.4213V21.365" stroke="black" stroke-width="1.5" stroke-miterlimit="10" stroke-linecap="round" stroke-linejoin="round"/>
<path d="M34.0542 18.4213V21.365" stroke="black" stroke-width="1.5" stroke-miterlimit="10" stroke-linecap="round" stroke-linejoin="round"/>
<path d="M36.1782 18.4213V21.365" stroke="black" stroke-width="1.5" stroke-miterlimit="10" stroke-linecap="round" stroke-linejoin="round"/>
<path d="M35.3313 43.0531H37.2865C39.0211 43.0531 40.4264 41.647 40.4264 39.9131V17.3708L37.4831 15.0795L40.4264 13.2375V3.89002C40.4264 2.15619 39.0211 0.75006 37.2865 0.75006H9.5716C7.83777 0.75006 6.43164 2.15619 6.43164 3.89002V25.7506L9.51797 29.2318L6.43164 31.9317V39.9131C6.43164 41.647 7.83777 43.0531 9.5716 43.0531H15.7366L18.1224 40.6673L20.5091 43.0531H32.3522" stroke="black" stroke-width="1.5" stroke-miterlimit="10" stroke-linecap="round" stroke-linejoin="round"/>
</svg>
