<svg width="48" height="48" viewBox="0 0 48 48" fill="none" xmlns="http://www.w3.org/2000/svg">
<path d="M18.8379 7.90838C20.943 5.80333 21.7323 3.17971 20.601 2.04836C19.4696 0.917013 16.846 1.70635 14.741 3.8114C12.6359 5.91645 11.8466 8.54006 12.9779 9.67141C14.1093 10.8028 16.7329 10.0134 18.8379 7.90838Z" stroke="black" stroke-width="1.5" stroke-miterlimit="10" stroke-linecap="round" stroke-linejoin="round"/>
<path d="M14.7411 3.81156C13.1493 5.40341 12.5619 7.61909 12.9781 9.67167L20.6012 2.04853C18.5486 1.63229 16.333 2.21972 14.7411 3.81156Z" stroke="black" stroke-width="1.5" stroke-miterlimit="10" stroke-linecap="round" stroke-linejoin="round"/>
<path d="M12.7189 11.5512C13.8503 10.4199 13.0609 7.79628 10.9559 5.69123C8.85082 3.58618 6.2272 2.79685 5.09585 3.92819C3.9645 5.05954 4.75384 7.68316 6.85889 9.78821C8.96394 11.8933 11.5876 12.6826 12.7189 11.5512Z" stroke="black" stroke-width="1.5" stroke-miterlimit="10" stroke-linecap="round" stroke-linejoin="round"/>
<path d="M6.85929 9.78799C8.45114 11.3798 10.6668 11.9673 12.7194 11.551L5.09626 3.92798C4.68002 5.98055 5.26745 8.19615 6.85929 9.78799Z" stroke="black" stroke-width="1.5" stroke-miterlimit="10" stroke-linecap="round" stroke-linejoin="round"/>
<path d="M12.8486 4.4657V29.3126" stroke="black" stroke-width="1.5" stroke-miterlimit="10" stroke-linecap="round" stroke-linejoin="round"/>
<path d="M16.3426 19.703V15.0763H9.35412V27.159C9.35412 27.6246 9.23151 28.082 8.99873 28.4853L1.16018 42.062C-0.00177479 44.0745 1.45064 46.5901 3.77445 46.5901H20.2844C19.1126 46.5898 18.1627 45.6398 18.1627 44.4679V41.0285H23.9398L16.6979 28.4853C16.4652 28.0821 16.3426 27.6246 16.3426 27.159V22.9541" stroke="black" stroke-width="1.5" stroke-miterlimit="10" stroke-linecap="round" stroke-linejoin="round"/>
<path d="M8.07471 15.0764H17.6225" stroke="black" stroke-width="1.5" stroke-miterlimit="10" stroke-linecap="round" stroke-linejoin="round"/>
<path d="M18.1626 44.4682V41.0287H23.9397L19.0759 32.6044H6.62067L1.16018 42.0622C-0.00177473 44.0746 1.45064 46.5902 3.77445 46.5902H20.2846C19.1126 46.5901 18.1626 45.6401 18.1626 44.4682Z" stroke="black" stroke-width="1.5" stroke-miterlimit="10" stroke-linecap="round" stroke-linejoin="round"/>
<path d="M36.9313 41.0283H18.1624V44.4678C18.1624 45.6398 19.1125 46.59 20.2845 46.59H41.9085C43.0805 46.59 44.0306 45.6398 44.0306 44.4678V41.0283H40.1824" stroke="black" stroke-width="1.5" stroke-miterlimit="10" stroke-linecap="round" stroke-linejoin="round"/>
<path d="M43.9916 41.0284V37.5146C43.9916 37.2408 43.7696 37.0188 43.4958 37.0188H18.6587C18.3848 37.0188 18.1628 37.2408 18.1628 37.5146V41.0284" stroke="black" stroke-width="1.5" stroke-miterlimit="10" stroke-linecap="round" stroke-linejoin="round"/>
<circle cx="8.92128" cy="37.359" r="0.696669" fill="black"/>
<circle cx="6.79921" cy="40.7542" r="0.696669" fill="black"/>
<circle cx="11.0436" cy="41.8151" r="0.696669" fill="black"/>
<path d="M6.62061 32.604H19.0759L17.1755 29.3124H8.52103L6.62061 32.604Z" stroke="black" stroke-width="1.5" stroke-miterlimit="10" stroke-linecap="round" stroke-linejoin="round"/>
<path d="M9.52808 18.0964H10.5198" stroke="black" stroke-width="1.5" stroke-miterlimit="10" stroke-linecap="round" stroke-linejoin="round"/>
<path d="M9.52808 21.1255H10.5198" stroke="black" stroke-width="1.5" stroke-miterlimit="10" stroke-linecap="round" stroke-linejoin="round"/>
<path d="M9.52808 24.1556H10.5198" stroke="black" stroke-width="1.5" stroke-miterlimit="10" stroke-linecap="round" stroke-linejoin="round"/>
<path d="M35.8691 18.6813C35.3602 17.432 34.1346 16.551 32.7024 16.551C30.8143 16.551 29.2837 18.0817 29.2837 19.9697C29.2837 21.8578 30.8143 23.3884 32.7024 23.3884C33.8599 23.3884 34.8823 22.8126 35.5008 21.9325" stroke="black" stroke-width="1.5" stroke-miterlimit="10" stroke-linecap="round" stroke-linejoin="round"/>
<path d="M36.7647 8.67472C36.4442 9.01311 35.9919 9.22537 35.4891 9.22537C34.518 9.22537 33.7309 8.43822 33.7309 7.46716C33.7309 6.9963 33.917 6.56966 34.2184 6.25402C33.7309 6.02552 33.2234 5.9043 32.7023 5.9043C28.9378 5.9043 25.886 12.2016 25.886 19.9698C25.886 27.7379 28.9378 34.0353 32.7023 34.0353C36.4668 34.0353 39.5186 27.7379 39.5186 19.9698C39.5187 15.3429 38.4359 11.2381 36.7647 8.67472Z" stroke="black" stroke-width="1.5" stroke-miterlimit="10" stroke-linecap="round" stroke-linejoin="round"/>
<path d="M45.1591 25.6351C44.1881 25.6351 43.4009 24.8479 43.4009 23.8769C43.4009 23.1108 43.8917 22.4609 44.5754 22.22C43.2196 19.4588 40.1768 16.4143 36.1106 14.0666C29.3831 10.1826 22.4036 9.67687 20.5213 12.937C18.639 16.1971 22.5668 21.9888 29.2942 25.8729C36.0216 29.7569 43.0011 30.2627 44.8834 27.0025C45.1257 26.5827 45.271 26.1208 45.3272 25.6265C45.2719 25.6318 45.2158 25.6351 45.1591 25.6351Z" stroke="black" stroke-width="1.5" stroke-miterlimit="10" stroke-linecap="round" stroke-linejoin="round"/>
<path d="M44.8834 12.937C43.0011 9.67682 36.0216 10.1826 29.2942 14.0667C22.5668 17.9507 18.639 23.7423 20.5213 27.0025C20.8209 27.5214 21.2501 27.9445 21.7864 28.2742C21.9976 27.5401 22.6728 27.0025 23.4748 27.0025C24.4458 27.0025 25.233 27.7897 25.233 28.7607C25.233 28.8932 25.2172 29.0217 25.1895 29.1458C28.2179 29.2429 32.2065 28.1269 36.1106 25.873C42.8379 21.9888 46.7656 16.1973 44.8834 12.937Z" stroke="black" stroke-width="1.5" stroke-miterlimit="10" stroke-linecap="round" stroke-linejoin="round"/>
<path d="M35.4889 9.2254C36.46 9.2254 37.2471 8.43822 37.2471 7.46719C37.2471 6.49616 36.46 5.70898 35.4889 5.70898C34.5179 5.70898 33.7307 6.49616 33.7307 7.46719C33.7307 8.43822 34.5179 9.2254 35.4889 9.2254Z" stroke="black" stroke-width="1.5" stroke-miterlimit="10" stroke-linecap="round" stroke-linejoin="round"/>
<path d="M23.475 30.519C24.446 30.519 25.2332 29.7318 25.2332 28.7608C25.2332 27.7897 24.446 27.0026 23.475 27.0026C22.504 27.0026 21.7168 27.7897 21.7168 28.7608C21.7168 29.7318 22.504 30.519 23.475 30.519Z" stroke="black" stroke-width="1.5" stroke-miterlimit="10" stroke-linecap="round" stroke-linejoin="round"/>
<path d="M45.1588 25.6348C46.1299 25.6348 46.917 24.8476 46.917 23.8766C46.917 22.9056 46.1299 22.1184 45.1588 22.1184C44.1878 22.1184 43.4006 22.9056 43.4006 23.8766C43.4006 24.8476 44.1878 25.6348 45.1588 25.6348Z" stroke="black" stroke-width="1.5" stroke-miterlimit="10" stroke-linecap="round" stroke-linejoin="round"/>
</svg>
