<svg width="47" height="47" viewBox="0 0 47 47" fill="none" xmlns="http://www.w3.org/2000/svg">
<mask id="mask0_126_691" style="mask-type:luminance" maskUnits="userSpaceOnUse" x="0" y="0" width="47" height="47">
<path d="M0 0H46.166V46.166H0V0Z" fill="white"/>
</mask>
<g mask="url(#mask0_126_691)">
<path d="M40.7044 32.2179L41.9875 30.9373C42.3684 30.5539 42.3684 29.9302 41.9875 29.5468L39.6028 27.1646C39.222 26.7812 38.5958 26.7812 38.2124 27.1646L36.9319 28.4452" stroke="black" stroke-width="1.5" stroke-miterlimit="10" stroke-linecap="round" stroke-linejoin="round"/>
<path d="M39.4519 1.73734L35.9425 3.04342C35.0045 3.39102 34.754 3.51626 33.9566 4.31371L30.051 8.21943L32.9699 11.1409L36.8755 7.23533C37.6755 6.43527 37.7982 6.18478 38.1483 5.24677L39.4519 1.73734Z" stroke="black" stroke-width="1.5" stroke-miterlimit="10" stroke-linecap="round" stroke-linejoin="round"/>
<path d="M39.7209 1.47144L40.5159 0.676514" stroke="black" stroke-width="1.5" stroke-miterlimit="10" stroke-linecap="round" stroke-linejoin="round"/>
<path d="M30.0457 8.21433L32.9748 11.1461C33.4733 11.642 33.4733 12.4574 32.9748 12.9532L19.9548 25.9761L15.2161 21.2373L28.2361 8.21433C28.7345 7.71588 29.5474 7.71588 30.0457 8.21433Z" stroke="black" stroke-width="1.5" stroke-miterlimit="10" stroke-linecap="round" stroke-linejoin="round"/>
<path d="M3.7174 34.0379L7.15262 37.4733L5.37622 39.2497C5.10779 39.518 4.67075 39.518 4.40241 39.2497L1.941 36.7882C1.67266 36.5197 1.67266 36.0828 1.941 35.8144L3.7174 34.0379Z" stroke="black" stroke-width="1.5" stroke-miterlimit="10" stroke-linecap="round" stroke-linejoin="round"/>
<path d="M13.0361 25.871L11.1294 23.9642C10.8328 23.6676 10.8328 23.1846 11.1294 22.8907L13.4604 20.5569C13.7569 20.2605 14.2399 20.2605 14.5365 20.5569L20.6349 26.6556C20.9289 26.9497 20.9289 27.4327 20.6349 27.7292L18.3014 30.0628C18.0049 30.3568 17.5218 30.3568 17.2253 30.0628L15.2572 28.0947" stroke="black" stroke-width="1.5" stroke-miterlimit="10" stroke-linecap="round" stroke-linejoin="round"/>
<path d="M16.6761 29.5135L8.5302 37.6622C8.20307 37.9868 7.66883 37.9868 7.3417 37.6622L3.53075 33.8511C3.20362 33.524 3.20362 32.9872 3.53075 32.6626L11.6791 24.514" stroke="black" stroke-width="1.5" stroke-miterlimit="10" stroke-linecap="round" stroke-linejoin="round"/>
<path d="M21.0646 32.4888L9.35324 44.2006C7.65357 45.9003 4.87261 45.9003 3.17294 44.2006C1.47328 42.5007 1.47328 39.7198 3.17294 38.0201" stroke="black" stroke-width="1.5" stroke-miterlimit="10" stroke-linecap="round" stroke-linejoin="round"/>
<path d="M21.0647 32.4886L35.0202 18.5327C37.1646 16.3882 40.674 16.3882 42.8184 18.5327C44.9629 20.6773 44.9629 24.1867 42.8184 26.3312L40.7941 28.3555" stroke="black" stroke-width="1.5" stroke-miterlimit="10" stroke-linecap="round" stroke-linejoin="round"/>
<path d="M9.25391 26.9399L14.2534 31.9369" stroke="black" stroke-width="1.5" stroke-miterlimit="10" stroke-linecap="round" stroke-linejoin="round"/>
<path d="M20.5713 15.8796L21.5553 16.8636" stroke="black" stroke-width="1.5" stroke-miterlimit="10" stroke-linecap="round" stroke-linejoin="round"/>
<path d="M25.3097 20.621L24.3257 19.6369" stroke="black" stroke-width="1.5" stroke-miterlimit="10" stroke-linecap="round" stroke-linejoin="round"/>
<path d="M17.8926 18.5585L18.8767 19.5425" stroke="black" stroke-width="1.5" stroke-miterlimit="10" stroke-linecap="round" stroke-linejoin="round"/>
<path d="M22.6343 23.2974L21.6477 22.3133" stroke="black" stroke-width="1.5" stroke-miterlimit="10" stroke-linecap="round" stroke-linejoin="round"/>
<path d="M15.2161 21.2373L16.2002 22.2213" stroke="black" stroke-width="1.5" stroke-miterlimit="10" stroke-linecap="round" stroke-linejoin="round"/>
<path d="M19.9553 25.9761L18.9712 24.992" stroke="black" stroke-width="1.5" stroke-miterlimit="10" stroke-linecap="round" stroke-linejoin="round"/>
<path d="M23.2476 13.2037L24.2342 14.1877" stroke="black" stroke-width="1.5" stroke-miterlimit="10" stroke-linecap="round" stroke-linejoin="round"/>
<path d="M27.9887 17.9423L27.0046 16.9582" stroke="black" stroke-width="1.5" stroke-miterlimit="10" stroke-linecap="round" stroke-linejoin="round"/>
<path d="M30.092 36.1772L26.0612 40.2055C25.5143 40.7525 24.6197 40.7525 24.0701 40.2055C23.5232 39.6585 23.5232 38.7614 24.0701 38.2144L28.1009 34.1861" stroke="black" stroke-width="1.5" stroke-miterlimit="10" stroke-linecap="round" stroke-linejoin="round"/>
<path d="M32.9749 39.0603L28.9442 43.0886C28.3972 43.6355 28.3972 44.5327 28.9442 45.0798C29.4937 45.6267 30.3883 45.6267 30.9352 45.0798L34.966 41.0514" stroke="black" stroke-width="1.5" stroke-miterlimit="10" stroke-linecap="round" stroke-linejoin="round"/>
<path d="M35.1147 31.7218L37.4278 34.0376" stroke="black" stroke-width="1.5" stroke-miterlimit="10" stroke-linecap="round" stroke-linejoin="round"/>
<path d="M34.8489 36.553L38.1717 39.8759C38.4196 40.1212 38.4196 40.5251 38.1717 40.7704L36.8758 42.0664C36.6305 42.3117 36.2266 42.3117 35.9812 42.0664L27.0839 33.1688C26.8386 32.9234 26.8386 32.5196 27.0839 32.2742L28.3798 30.9783C28.6252 30.733 29.029 30.733 29.2744 30.9783L32.6533 34.3548" stroke="black" stroke-width="1.5" stroke-miterlimit="10" stroke-linecap="round" stroke-linejoin="round"/>
<path d="M29.6475 31.3514L32.5536 28.4453C33.7574 27.2413 35.7281 27.2413 36.932 28.4453L40.7045 32.2179C41.9109 33.4218 41.9109 35.3924 40.7045 36.5964L37.8009 39.5026" stroke="black" stroke-width="1.5" stroke-miterlimit="10" stroke-linecap="round" stroke-linejoin="round"/>
</g>
</svg>
