<svg width="44" height="38" viewBox="0 0 44 38" fill="none" xmlns="http://www.w3.org/2000/svg">
<path d="M9.41887 36.5134H5.60107C5.13116 36.5134 4.75024 36.1325 4.75024 35.6626V25.512C4.75024 25.042 5.13116 24.6611 5.60107 24.6611H9.41887C9.88878 24.6611 10.2697 25.042 10.2697 25.512V35.6626C10.2697 36.1325 9.88878 36.5134 9.41887 36.5134Z" stroke="black" stroke-width="1.5" stroke-miterlimit="10" stroke-linecap="round" stroke-linejoin="round"/>
<path d="M28.3127 36.5134H24.4949C24.025 36.5134 23.644 36.1325 23.644 35.6626V28.8887C23.644 28.4188 24.025 28.0378 24.4949 28.0378H28.3127C28.7826 28.0378 29.1635 28.4188 29.1635 28.8887V35.6626C29.1635 36.1325 28.7826 36.5134 28.3127 36.5134Z" stroke="black" stroke-width="1.5" stroke-miterlimit="10" stroke-linecap="round" stroke-linejoin="round"/>
<path d="M18.8659 36.5134H15.0481C14.5782 36.5134 14.1973 36.1325 14.1973 35.6626V21.8306C14.1973 21.3606 14.5782 20.9797 15.0481 20.9797H18.8659C19.3358 20.9797 19.7167 21.3606 19.7167 21.8306V35.6626C19.7167 36.1325 19.3358 36.5134 18.8659 36.5134Z" stroke="black" stroke-width="1.5" stroke-miterlimit="10" stroke-linecap="round" stroke-linejoin="round"/>
<path d="M37.7597 36.5135H33.9419C33.472 36.5135 33.0911 36.1326 33.0911 35.6627V17.7286C33.0911 17.2587 33.472 16.8778 33.9419 16.8778H37.7597C38.2296 16.8778 38.6105 17.2587 38.6105 17.7286V35.6627C38.6105 36.1326 38.2296 36.5135 37.7597 36.5135Z" stroke="black" stroke-width="1.5" stroke-miterlimit="10" stroke-linecap="round" stroke-linejoin="round"/>
<path d="M7.50975 19.7411C8.44954 19.7411 9.21139 18.9792 9.21139 18.0394C9.21139 17.0996 8.44954 16.3378 7.50975 16.3378C6.56996 16.3378 5.80811 17.0996 5.80811 18.0394C5.80811 18.9792 6.56996 19.7411 7.50975 19.7411Z" stroke="black" stroke-width="1.5" stroke-miterlimit="10" stroke-linecap="round" stroke-linejoin="round"/>
<path d="M16.9568 12.6353C17.8966 12.6353 18.6584 11.8735 18.6584 10.9337C18.6584 9.99391 17.8966 9.23206 16.9568 9.23206C16.017 9.23206 15.2551 9.99391 15.2551 10.9337C15.2551 11.8735 16.017 12.6353 16.9568 12.6353Z" stroke="black" stroke-width="1.5" stroke-miterlimit="10" stroke-linecap="round" stroke-linejoin="round"/>
<path d="M26.404 21.4426C27.3438 21.4426 28.1057 20.6807 28.1057 19.7409C28.1057 18.8012 27.3438 18.0393 26.404 18.0393C25.4642 18.0393 24.7024 18.8012 24.7024 19.7409C24.7024 20.6807 25.4642 21.4426 26.404 21.4426Z" stroke="black" stroke-width="1.5" stroke-miterlimit="10" stroke-linecap="round" stroke-linejoin="round"/>
<path d="M35.8511 8.31283C36.7908 8.31283 37.5527 7.55098 37.5527 6.61119C37.5527 5.6714 36.7908 4.90955 35.8511 4.90955C34.9113 4.90955 34.1494 5.6714 34.1494 6.61119C34.1494 7.55098 34.9113 8.31283 35.8511 8.31283Z" stroke="black" stroke-width="1.5" stroke-miterlimit="10" stroke-linecap="round" stroke-linejoin="round"/>
<path d="M9.21118 18.0393L15.2549 10.9336" stroke="black" stroke-width="1.5" stroke-miterlimit="10" stroke-linecap="round" stroke-linejoin="round"/>
<path d="M18.6582 10.9336L24.7019 19.741" stroke="black" stroke-width="1.5" stroke-miterlimit="10" stroke-linecap="round" stroke-linejoin="round"/>
<path d="M28.1055 19.741L34.1492 6.61108" stroke="black" stroke-width="1.5" stroke-miterlimit="10" stroke-linecap="round" stroke-linejoin="round"/>
<path d="M33.0064 32.2754H29.2483" stroke="black" stroke-width="1.5" stroke-miterlimit="10" stroke-linecap="round" stroke-linejoin="round"/>
<path d="M14.1121 32.2754H10.354" stroke="black" stroke-width="1.5" stroke-miterlimit="10" stroke-linecap="round" stroke-linejoin="round"/>
<path d="M4.66463 32.2755H2.45164C1.51149 32.2755 0.75 31.514 0.75 30.5738V2.45164C0.75 1.51149 1.51149 0.75 2.45164 0.75H40.9088C41.8489 0.75 42.6104 1.51149 42.6104 2.45164V8.44228" stroke="black" stroke-width="1.5" stroke-miterlimit="10" stroke-linecap="round" stroke-linejoin="round"/>
<path d="M23.5587 32.2754H19.8015" stroke="black" stroke-width="1.5" stroke-miterlimit="10" stroke-linecap="round" stroke-linejoin="round"/>
<path d="M42.6104 16.1951V30.5739C42.6104 31.5141 41.8489 32.2756 40.9088 32.2756H38.6958" stroke="black" stroke-width="1.5" stroke-miterlimit="10" stroke-linecap="round" stroke-linejoin="round"/>
<circle cx="42.6103" cy="12.3252" r="0.850821" fill="black"/>
</svg>
