<svg width="24" height="25" viewBox="0 0 24 25" fill="none" xmlns="http://www.w3.org/2000/svg">
<path opacity="0.88" d="M22.7822 18.9577L16.4069 8.71834C16.2089 8.42137 16.11 8.05838 16.11 7.72839V2.27706H16.7699C17.2319 2.27706 17.6279 1.91409 17.6279 1.41911C17.6279 0.957128 17.2319 0.557861 16.7699 0.557861H7.4215C6.95952 0.557861 6.56352 0.920835 6.56352 1.41911C6.56352 1.8811 6.95952 2.27706 7.4215 2.27706H8.08147V7.6954C8.08147 8.05838 7.98246 8.38836 7.78448 8.68535L1.44217 18.9577C0.749251 20.083 0.71622 21.4359 1.3432 22.5909C2.00316 23.7491 3.16141 24.4421 4.48134 24.4421H19.7101C21.0333 24.4421 22.2212 23.7491 22.8482 22.5909C23.5082 21.4689 23.4752 20.116 22.7822 18.9577ZM8.48074 19.027C7.78778 19.027 7.22678 18.4661 7.22678 17.7698C7.22678 17.0768 7.78778 16.5159 8.48074 16.5159C9.17369 16.5159 9.73469 17.0768 9.73469 17.7698C9.73469 18.4661 9.17369 19.027 8.48074 19.027ZM14.0938 21.9342C13.2919 21.9342 12.6418 21.2841 12.6418 20.479C12.6418 19.6771 13.2919 19.027 14.0938 19.027C14.8989 19.027 15.549 19.6771 15.549 20.479C15.549 21.2841 14.8989 21.9342 14.0938 21.9342ZM12.8563 14.9649C12.8563 14.3974 13.315 13.9387 13.8793 13.9387C14.4469 13.9387 14.9055 14.3974 14.9055 14.9649C14.9055 15.5292 14.4469 15.9879 13.8793 15.9879C13.315 15.9879 12.8563 15.5292 12.8563 14.9649ZM13.4008 12.6154C11.3846 11.8235 9.4377 11.7575 7.65248 12.2195L9.27271 9.6093C9.63568 9.04833 9.80067 8.38836 9.80067 7.6954V2.27706H14.4237V7.6954C14.4237 8.35537 14.625 9.01534 14.955 9.6093L17.2319 13.2754C15.9779 13.3084 14.691 13.1104 13.4008 12.6154Z" fill="#1D1D1F"/>
</svg>
