<svg width="24" height="25" viewBox="0 0 24 25" fill="none" xmlns="http://www.w3.org/2000/svg">
<path fill-rule="evenodd" clip-rule="evenodd" d="M23.9305 8.23333V21.879C23.9305 22.5579 23.6612 23.2087 23.181 23.688C22.7008 24.1681 22.05 24.4376 21.3712 24.4376H7.72138C7.04254 24.4376 6.39174 24.1681 5.91156 23.688C5.43138 23.2087 5.16205 22.5579 5.16205 21.879V15.7965C5.57764 15.8707 6.00542 15.909 6.44172 15.909C10.444 15.909 13.6932 12.6605 13.6932 8.65976C13.6932 4.65901 10.444 1.41047 6.44172 1.41047C6.22113 1.41047 6.00297 1.42071 5.78847 1.43947C6.25768 0.89961 6.94992 0.557617 7.72138 0.557617H16.2525V5.67476C16.2525 6.35363 16.5219 7.00437 17.002 7.48367C17.4822 7.96383 18.133 8.23333 18.8119 8.23333H23.9305ZM10.2807 20.1733V19.3205C10.2807 18.8497 9.89805 18.4676 9.42761 18.4676C8.95718 18.4676 8.5745 18.8497 8.5745 19.3205V20.1733C8.5745 20.6441 8.95718 21.0262 9.42761 21.0262C9.89805 21.0262 10.2807 20.6441 10.2807 20.1733ZM13.6932 20.1733V16.7619C13.6932 16.2911 13.3105 15.909 12.8401 15.909C12.3696 15.909 11.9869 16.2911 11.9869 16.7619V20.1733C11.9869 20.6441 12.3696 21.0262 12.8401 21.0262C13.3105 21.0262 13.6932 20.6441 13.6932 20.1733ZM17.1056 20.1733V17.6148C17.1056 17.144 16.7229 16.7619 16.2525 16.7619C15.7821 16.7619 15.3994 17.144 15.3994 17.6148V20.1733C15.3994 20.6441 15.7821 21.0262 16.2525 21.0262C16.7229 21.0262 17.1056 20.6441 17.1056 20.1733ZM20.5181 20.1733V14.2033C20.5181 13.7326 20.1354 13.3505 19.665 13.3505C19.1945 13.3505 18.8119 13.7326 18.8119 14.2033V20.1733C18.8119 20.6441 19.1945 21.0262 19.665 21.0262C20.1354 21.0262 20.5181 20.6441 20.5181 20.1733ZM17.9587 0.573819C18.5718 0.643753 19.1433 0.933729 19.5626 1.39512L23.2651 5.46581C23.5418 5.77113 23.7392 6.1353 23.844 6.52762H18.8119C18.5852 6.52762 18.3682 6.43807 18.2086 6.27773C18.0489 6.11825 17.9587 5.90077 17.9587 5.67476V0.573819ZM11.9211 9.51262C11.5104 12.1676 9.2119 14.2033 6.44172 14.2033C3.38148 14.2033 0.896484 11.719 0.896484 8.65976C0.896484 5.89053 2.93298 3.59209 5.58859 3.18186V7.8069C5.58859 8.74931 6.35275 9.51262 7.29483 9.51262H11.9211ZM7.29483 3.18186C9.67258 3.54944 11.5543 5.42999 11.9211 7.8069H7.29483V3.18186Z" fill="#1D1D1F"/>
</svg>
