<svg width="27" height="26" viewBox="0 0 27 26" fill="none" xmlns="http://www.w3.org/2000/svg">
<g opacity="0.88">
<path opacity="0.4" d="M13.5771 1.08008C20.373 1.08008 25.8632 6.42667 25.8633 12.999C25.8633 19.5715 20.3731 24.918 13.5771 24.918C6.78123 24.918 1.29102 19.5715 1.29102 12.999C1.29114 6.42668 6.7813 1.08009 13.5771 1.08008Z" stroke="white" stroke-opacity="0.88" stroke-width="0.75"/>
<path d="M20.0517 10.3151C20.0212 9.62314 19.9093 9.14743 19.749 8.73521C19.5837 8.29766 19.3293 7.90592 18.996 7.58026C18.6703 7.24954 18.276 6.99255 17.8435 6.82977C17.4289 6.66948 16.9557 6.55758 16.2637 6.52707C15.5666 6.49398 15.3453 6.48633 13.5772 6.48633C11.8091 6.48633 11.5878 6.49398 10.8932 6.52449C10.2013 6.555 9.72555 6.66699 9.31344 6.82719C8.87578 6.99255 8.48404 7.24695 8.15839 7.58026C7.82766 7.90592 7.57078 8.30024 7.4079 8.73273C7.2476 9.14743 7.13571 9.62056 7.1052 10.3125C7.07211 11.0096 7.06445 11.2309 7.06445 12.9991C7.06445 14.7672 7.07211 14.9885 7.10261 15.683C7.13312 16.375 7.24512 16.8507 7.40541 17.2629C7.57078 17.7004 7.82766 18.0922 8.15839 18.4178C8.48404 18.7486 8.87837 19.0056 9.31085 19.1683C9.72555 19.3286 10.1987 19.4405 10.8907 19.471C11.5852 19.5016 11.8066 19.5092 13.5747 19.5092C15.3428 19.5092 15.5641 19.5016 16.2586 19.471C16.9506 19.4405 17.4263 19.3286 17.8384 19.1683C18.7136 18.83 19.4056 18.138 19.744 17.2629C19.9042 16.8482 20.0162 16.375 20.0467 15.683C20.0772 14.9885 20.0848 14.7672 20.0848 12.9991C20.0848 11.2309 20.0822 11.0096 20.0517 10.3151ZM18.879 15.6321C18.851 16.2681 18.7441 16.6116 18.6551 16.8405C18.4363 17.4079 17.986 17.8582 17.4187 18.077C17.1897 18.166 16.8438 18.2729 16.2102 18.3008C15.5234 18.3314 15.3174 18.3389 13.5798 18.3389C11.8422 18.3389 11.6336 18.3314 10.9492 18.3008C10.3132 18.2729 9.96972 18.166 9.74076 18.077C9.45843 17.9726 9.20144 17.8073 8.99285 17.591C8.77661 17.3799 8.61124 17.1255 8.5069 16.8431C8.41786 16.6142 8.31103 16.2681 8.2831 15.6347C8.2525 14.9478 8.24494 14.7417 8.24494 13.0041C8.24494 11.2665 8.2525 11.0579 8.2831 10.3736C8.31103 9.73762 8.41786 9.39418 8.5069 9.16521C8.61124 8.88279 8.77661 8.6259 8.99543 8.41721C9.20651 8.20097 9.46091 8.0356 9.74334 7.93136C9.9723 7.84232 10.3183 7.73549 10.9518 7.70746C11.6386 7.67696 11.8447 7.6693 13.5822 7.6693C15.3224 7.6693 15.5284 7.67696 16.2128 7.70746C16.8488 7.73549 17.1923 7.84232 17.4212 7.93136C17.7036 8.0356 17.9606 8.20097 18.1692 8.41721C18.3854 8.62838 18.5508 8.88279 18.6551 9.16521C18.7441 9.39418 18.851 9.74011 18.879 10.3736C18.9095 11.0605 18.9172 11.2665 18.9172 13.0041C18.9172 14.7417 18.9095 14.9452 18.879 15.6321Z" fill="white" fill-opacity="0.88"/>
<path d="M13.5771 6.43652C15.3451 6.43652 15.5677 6.44441 16.2656 6.47754L16.5176 6.49219C17.0816 6.5366 17.4938 6.64113 17.8613 6.7832L18.0244 6.84961C18.3996 7.01486 18.7421 7.25131 19.0312 7.54492L19.1543 7.67188C19.4327 7.97555 19.649 8.32841 19.7959 8.7168L19.9072 9.04492C20.0089 9.38908 20.0785 9.79011 20.1016 10.3125L20.1201 10.7773C20.1337 11.2163 20.1348 11.6729 20.1348 12.999C20.1348 14.3253 20.1303 14.7819 20.1152 15.2207L20.0967 15.6855C20.0736 16.208 20.004 16.6077 19.9023 16.9521L19.791 17.2812C19.469 18.114 18.831 18.7831 18.0205 19.1465L17.8564 19.2148C17.491 19.357 17.0771 19.4614 16.5127 19.5059L16.2607 19.5205C15.5652 19.5512 15.3425 19.5596 13.5742 19.5596C12.2479 19.5596 11.7915 19.5551 11.3525 19.54L10.8887 19.5205C10.3658 19.4975 9.96568 19.4289 9.62109 19.3271L9.29297 19.2148C8.90867 19.0702 8.55413 18.8524 8.25 18.5752L8.12305 18.4531C7.78751 18.1226 7.5263 17.7253 7.3584 17.2812L7.24707 16.9531C7.16229 16.6662 7.10008 16.3398 7.06836 15.9365L7.05273 15.6855C7.02218 14.9899 7.01465 14.7674 7.01465 12.999C7.01465 11.231 7.02253 11.0086 7.05566 10.3105L7.07031 10.0586C7.11473 9.4946 7.21925 9.08243 7.36133 8.71484L7.42773 8.55273C7.59305 8.17724 7.82921 7.83433 8.12305 7.54492L8.25 7.42188C8.55365 7.14355 8.90648 6.92714 9.29492 6.78027L9.62305 6.66895C9.96716 6.56727 10.3682 6.49767 10.8906 6.47461L11.3555 6.45605C11.7943 6.44101 12.2508 6.43652 13.5771 6.43652ZM11.874 7.72656L10.9541 7.75781C10.3266 7.78557 9.98573 7.89045 9.76172 7.97754L9.76074 7.97852C9.48533 8.08017 9.23716 8.2412 9.03125 8.45215L9.03027 8.45312C8.81719 8.65634 8.65553 8.90704 8.55371 9.18262V9.18359C8.47751 9.37956 8.38664 9.66265 8.34668 10.1523L8.33301 10.376C8.30245 11.0591 8.29492 11.2669 8.29492 13.0039C8.29492 14.7412 8.30245 14.947 8.33301 15.6328L8.34668 15.8545C8.37523 16.2041 8.4298 16.4496 8.48633 16.6328L8.55371 16.8252V16.8262L8.6416 17.0273C8.70705 17.1576 8.7862 17.2806 8.87891 17.3936L9.02734 17.5557L9.0293 17.5566L9.18945 17.7051C9.35853 17.8441 9.55121 17.9539 9.75781 18.0303H9.75879L9.95117 18.0977C10.1703 18.1654 10.4786 18.2302 10.9512 18.251L11.8701 18.2812C12.2246 18.287 12.7112 18.2891 13.5801 18.2891C15.3171 18.2891 15.5223 18.2815 16.208 18.251L16.4307 18.2373C16.9193 18.1973 17.2044 18.1065 17.4004 18.0303L17.6025 17.9395C18.061 17.7045 18.4213 17.3072 18.6084 16.8223L18.6758 16.6299C18.7435 16.4108 18.8083 16.1025 18.8291 15.6299L18.8594 14.7109C18.8651 14.3574 18.8672 13.8722 18.8672 13.0039C18.8672 12.1356 18.8651 11.65 18.8594 11.2959L18.8291 10.376C18.8013 9.74822 18.6955 9.40761 18.6084 9.18359V9.18262C18.5066 8.90719 18.3448 8.65915 18.1338 8.45312L18.1328 8.45215C17.9297 8.24163 17.6796 8.08024 17.4043 7.97852L17.4033 7.97754C17.2073 7.9013 16.9237 7.8115 16.4336 7.77148L16.2109 7.75781C15.5276 7.72735 15.3219 7.71973 13.582 7.71973C12.7137 7.71973 12.2282 7.72085 11.874 7.72656Z" stroke="white" stroke-opacity="0.88" stroke-width="0.1"/>
<path d="M13.5739 9.65039C11.727 9.65039 10.2285 11.1488 10.2285 12.9958C10.2285 14.8428 11.727 16.3412 13.5739 16.3412C15.4209 16.3412 16.9193 14.8428 16.9193 12.9958C16.9193 11.1488 15.4209 9.65039 13.5739 9.65039ZM13.5739 15.1659C12.3757 15.1659 11.4038 14.1941 11.4038 12.9958C11.4038 11.7975 12.3757 10.8257 13.5739 10.8257C14.7722 10.8257 15.744 11.7975 15.744 12.9958C15.744 14.1941 14.7722 15.1659 13.5739 15.1659Z" fill="white" fill-opacity="0.88"/>
<path d="M13.5742 9.60059C15.4487 9.60075 16.9697 11.1216 16.9697 12.9961C16.9696 14.8705 15.4486 16.3914 13.5742 16.3916C11.6998 16.3916 10.1789 14.8706 10.1787 12.9961C10.1787 11.1215 11.6997 9.60059 13.5742 9.60059ZM13.5742 10.876C12.4037 10.876 11.4541 11.8254 11.4541 12.9961C11.4543 14.1666 12.4038 15.1162 13.5742 15.1162C14.7446 15.116 15.6942 14.1665 15.6943 12.9961C15.6943 11.8255 14.7447 10.8761 13.5742 10.876Z" stroke="white" stroke-opacity="0.88" stroke-width="0.1"/>
<path d="M17.8375 9.52514C17.8375 9.95643 17.4878 10.3061 17.0564 10.3061C16.6251 10.3061 16.2754 9.95643 16.2754 9.52514C16.2754 9.09375 16.6251 8.74414 17.0564 8.74414C17.4878 8.74414 17.8375 9.09375 17.8375 9.52514Z" fill="white" fill-opacity="0.88"/>
<path d="M17.0566 8.69434C17.5155 8.69447 17.8877 9.06646 17.8877 9.52539C17.8876 9.9841 17.5154 10.3563 17.0566 10.3564C16.5978 10.3564 16.2257 9.98418 16.2256 9.52539C16.2256 9.06638 16.5977 8.69434 17.0566 8.69434Z" stroke="white" stroke-opacity="0.88" stroke-width="0.1"/>
</g>
</svg>
