<svg width="27" height="26" viewBox="0 0 27 26" fill="none" xmlns="http://www.w3.org/2000/svg">
<g opacity="0.88">
<path opacity="0.4" d="M13.415 1.08203C20.2109 1.08203 25.7011 6.42863 25.7012 13.001C25.7012 19.5734 20.211 24.9199 13.415 24.9199C6.61912 24.9199 1.12891 19.5734 1.12891 13.001C1.12903 6.42863 6.61919 1.08204 13.415 1.08203Z" stroke="white" stroke-opacity="0.88" stroke-width="0.75"/>
<path d="M16.8805 8.00391C15.5753 8.00391 14.5551 8.93229 13.6315 10.1117C12.3623 8.58545 11.3009 8.00391 10.0308 8.00391C7.44118 8.00391 5.45703 11.1868 5.45703 14.5557C5.45703 16.6639 6.53693 17.9935 8.34571 17.9935C9.64757 17.9935 10.5839 17.4139 12.2483 14.6659C12.2483 14.6659 12.9422 13.5087 13.4195 12.7116C13.5868 12.9666 13.7625 13.241 13.948 13.5361L14.7285 14.7762C16.249 17.1791 17.0961 17.9935 18.6312 17.9935C20.3933 17.9935 21.3739 16.6457 21.3739 14.4937C21.374 10.9663 19.3451 8.00391 16.8805 8.00391ZM10.9791 13.9219C9.62957 15.9198 9.16272 16.3676 8.41136 16.3676C7.63812 16.3676 7.17858 15.7265 7.17858 14.5833C7.17858 12.1375 8.46975 9.63668 10.0089 9.63668C10.8424 9.63668 11.5389 10.0913 12.6059 11.5339C11.5928 13.0014 10.9791 13.9219 10.9791 13.9219ZM16.0723 13.6704L15.1391 12.2004C14.8865 11.8125 14.6445 11.456 14.411 11.1292C15.2521 9.90316 15.9459 9.29222 16.7711 9.29222C18.4853 9.29222 19.8567 11.676 19.8567 14.604C19.8567 15.72 19.4696 16.3676 18.6677 16.3676C17.899 16.3676 17.5318 15.8882 16.0723 13.6704Z" fill="white" fill-opacity="0.88"/>
</g>
</svg>
