<svg width="26" height="26" viewBox="0 0 26 26" fill="none" xmlns="http://www.w3.org/2000/svg">
<g opacity="0.88">
<path opacity="0.4" d="M13.1396 1.08008C19.9355 1.08008 25.4257 6.42667 25.4258 12.999C25.4258 19.5715 19.9356 24.918 13.1396 24.918C6.34373 24.918 0.853516 19.5715 0.853516 12.999C0.853637 6.42668 6.3438 1.08009 13.1396 1.08008Z" stroke="white" stroke-opacity="0.88" stroke-width="0.75"/>
<path d="M15.1377 12.4152L12.2606 10.841C12.0952 10.7505 11.8997 10.7538 11.7375 10.8499C11.5753 10.9461 11.4785 11.116 11.4785 11.3046V14.426C11.4785 14.6136 11.5747 14.7832 11.7358 14.8795C11.82 14.9298 11.9133 14.955 12.0068 14.955C12.0924 14.955 12.1783 14.9339 12.2573 14.8913L15.1344 13.3443C15.3052 13.2524 15.4118 13.0748 15.4126 12.8808C15.4133 12.6867 15.308 12.5084 15.1377 12.4152ZM12.2417 14.0333V11.7004L14.3919 12.877L12.2417 14.0333Z" fill="white" fill-opacity="0.88"/>
<path d="M11.7412 10.6807C11.9315 10.599 12.1476 10.6076 12.333 10.709L15.21 12.2832L15.2881 12.333C15.4602 12.4603 15.5631 12.6631 15.5625 12.8809V12.8818C15.5615 13.0994 15.4569 13.3008 15.2842 13.4268L15.2051 13.4766L12.3281 15.0234C12.2274 15.0776 12.1173 15.1055 12.0068 15.1055C11.9162 15.1055 11.8259 15.0871 11.7412 15.0508L11.6592 15.0078C11.4527 14.8844 11.3281 14.6662 11.3281 14.4258V11.3047C11.3281 11.0631 11.4533 10.8439 11.6611 10.7207L11.7412 10.6807ZM12.3916 13.7822L14.0771 12.876L12.3916 11.9531V13.7822Z" stroke="white" stroke-opacity="0.88" stroke-width="0.3"/>
<path d="M19.554 10.3925L19.5534 10.3865C19.5424 10.2817 19.4326 9.34934 18.9793 8.87511C18.4554 8.31732 17.8615 8.24955 17.5758 8.21707C17.5522 8.21438 17.5305 8.2119 17.5112 8.20932L17.4884 8.20693C15.7668 8.08174 13.1667 8.06465 13.1407 8.06455L13.1384 8.06445L13.1361 8.06455C13.1101 8.06465 10.51 8.08174 8.77285 8.20693L8.7499 8.20932C8.73142 8.2118 8.71105 8.21408 8.6889 8.21667C8.40653 8.24926 7.81893 8.31712 7.29354 8.89508C6.86183 9.36424 6.73704 10.2766 6.72422 10.3792L6.72273 10.3925C6.71886 10.4361 6.62695 11.4745 6.62695 12.5169V13.4914C6.62695 14.5339 6.71886 15.5723 6.72273 15.616L6.72343 15.6225C6.73446 15.7257 6.84415 16.6409 7.29532 17.1154C7.78793 17.6545 8.4108 17.7258 8.74583 17.7642C8.79879 17.7702 8.84439 17.7754 8.87549 17.7809L8.90559 17.785C9.89966 17.8796 13.0164 17.9262 13.1485 17.9281L13.1525 17.9282L13.1565 17.9281C13.1825 17.928 15.7825 17.9109 17.5041 17.7857L17.5269 17.7833C17.5486 17.7805 17.5731 17.7779 17.5999 17.7751C17.8807 17.7453 18.4651 17.6834 18.9832 17.1133C19.4149 16.644 19.5398 15.7316 19.5525 15.6292L19.554 15.6159C19.5579 15.5722 19.6499 14.5339 19.6499 13.4914V12.5169C19.6498 11.4745 19.5579 10.4362 19.554 10.3925ZM18.8866 13.4914C18.8866 14.4563 18.8024 15.4499 18.7944 15.5412C18.7621 15.7924 18.6304 16.3697 18.4201 16.5983C18.0958 16.9551 17.7626 16.9905 17.5194 17.0162C17.49 17.0193 17.4628 17.0223 17.4381 17.0253C15.7729 17.1458 13.271 17.1643 13.1558 17.1649C13.0265 17.1631 9.95539 17.1161 8.99164 17.0265C8.94226 17.0185 8.8889 17.0123 8.83267 17.006C8.54741 16.9733 8.15694 16.9286 7.85669 16.5983L7.84963 16.5908C7.64297 16.3755 7.5151 15.8356 7.48261 15.5441C7.47655 15.4752 7.39011 14.4698 7.39011 13.4914V12.5169C7.39011 11.5532 7.47417 10.5606 7.48231 10.4675C7.52096 10.1715 7.65509 9.62922 7.85669 9.41004C8.19092 9.04242 8.54334 9.00169 8.77643 8.97476C8.79869 8.97218 8.81945 8.96979 8.83863 8.96731C10.5281 8.84629 13.048 8.82831 13.1384 8.82761C13.2288 8.82821 15.7478 8.84629 17.4222 8.96731C17.4428 8.96989 17.4653 8.97248 17.4894 8.97526C17.7291 9.00258 18.0915 9.04391 18.424 9.39862L18.4271 9.4019C18.6338 9.6172 18.7617 10.1664 18.7941 10.4638C18.7999 10.5289 18.8866 11.5365 18.8866 12.5169V13.4914Z" fill="white" fill-opacity="0.88"/>
<path d="M13.1436 7.91602L13.1445 7.91504H13.1475L13.1465 7.91602C13.2793 7.91687 15.809 7.93474 17.499 8.05762H17.5039L17.5264 8.06055H17.5312L17.5928 8.06836L17.8711 8.10742C18.2009 8.16983 18.6663 8.3231 19.0879 8.77148L19.1777 8.87598C19.3764 9.13001 19.5006 9.45517 19.5771 9.72852C19.6215 9.88693 19.6512 10.0336 19.6709 10.1475L19.7021 10.3711L19.7031 10.3721V10.3789L19.7529 11.0713C19.7765 11.4689 19.7997 11.992 19.7998 12.5166V13.4912C19.7998 14.5392 19.7073 15.5818 19.7031 15.6289V15.6328L19.7012 15.6455V15.6475C19.6943 15.703 19.6591 15.9654 19.5693 16.2754C19.4807 16.5813 19.3336 16.9541 19.0938 17.2148L19.0928 17.2139C18.6753 17.673 18.2163 17.8263 17.8906 17.8867L17.6152 17.9238L17.5469 17.9316L17.543 17.9326L17.5195 17.9346L17.5146 17.9355C15.8087 18.0596 13.2475 18.0766 13.1592 18.0771L13.1602 18.0781H13.1445V18.0771C12.9908 18.0749 9.88924 18.0295 8.8916 17.9346L8.88477 17.9336L8.85449 17.9297L8.84961 17.9287L8.72852 17.9131C8.392 17.8746 7.7176 17.8 7.18457 17.2168V17.2158C6.93506 16.952 6.78719 16.5779 6.7002 16.2705C6.65601 16.1144 6.62608 15.9704 6.60645 15.8584L6.57422 15.6387L6.57324 15.6318V15.6289C6.5689 15.58 6.47656 14.5382 6.47656 13.4912V12.5166C6.47658 11.4673 6.56929 10.4234 6.57324 10.3789V10.376L6.5752 10.3623V10.3604L6.61035 10.1426C6.63135 10.0313 6.66306 9.88761 6.70801 9.73242C6.79658 9.42675 6.94317 9.05444 7.18262 8.79395L7.28906 8.68457C7.82437 8.1654 8.3994 8.09883 8.67188 8.06738L8.72949 8.06055L8.73438 8.05957V8.06055L8.75781 8.05762H8.76172L9.44922 8.01465C11.0728 7.92949 13.0102 7.91679 13.1299 7.91602V7.91504H13.1318L13.1445 7.91406L13.1436 7.91602ZM13.1377 8.97754C13.019 8.97844 10.5237 8.99729 8.84961 9.11719L8.79395 9.12402C8.5686 9.15005 8.2635 9.18557 7.96777 9.51074L7.9668 9.51172C7.88973 9.59565 7.81346 9.75855 7.75098 9.95508C7.69114 10.1433 7.65047 10.3413 7.63184 10.4805L7.58301 11.1748C7.56112 11.5526 7.54005 12.0384 7.54004 12.5166V13.4912C7.54004 14.4483 7.62364 15.4333 7.63184 15.5273L7.67188 15.7695C7.69069 15.8599 7.71466 15.9572 7.74414 16.0518C7.78969 16.1977 7.84358 16.3239 7.90039 16.4121L7.95801 16.4873L7.95898 16.4883L7.96582 16.4961L7.96777 16.4971L8.06836 16.5928C8.30916 16.7913 8.59664 16.8276 8.84863 16.8564H8.84961C8.90159 16.8623 8.95452 16.8691 9.00488 16.877H9.00586C9.95872 16.9654 13.0007 17.0114 13.1562 17.0137C13.2727 17.0129 15.1879 16.9996 16.7725 16.916L17.4277 16.876C17.4516 16.8731 17.4773 16.87 17.5039 16.8672L17.6885 16.8428C17.8813 16.8089 18.0946 16.7325 18.3086 16.4971H18.3096L18.3691 16.416C18.428 16.3209 18.4833 16.1857 18.5303 16.0342C18.59 15.8412 18.6289 15.6452 18.6445 15.5273C18.6528 15.4326 18.7363 14.4467 18.7363 13.4912V12.5166C18.7363 11.5454 18.6506 10.5458 18.6445 10.4775V10.4766C18.629 10.3371 18.5907 10.1367 18.5322 9.94629C18.4714 9.74833 18.3966 9.58651 18.3193 9.50586L18.3174 9.50488L18.3145 9.50098C18.0942 9.26619 17.8622 9.18674 17.6611 9.15039L17.4727 9.12402C17.4515 9.12158 17.4305 9.1186 17.4111 9.11621V9.11719C15.7442 8.99673 13.234 8.97818 13.1377 8.97754Z" stroke="white" stroke-opacity="0.88" stroke-width="0.3"/>
</g>
</svg>
