<svg width="49" height="48" viewBox="0 0 49 48" fill="none" xmlns="http://www.w3.org/2000/svg">
<path d="M19.3089 8.17974C21.4139 6.07469 22.2033 3.45107 21.0719 2.31972C19.9406 1.18838 17.317 1.97771 15.2119 4.08276C13.1069 6.18781 12.3175 8.81143 13.4489 9.94278C14.5802 11.0741 17.2038 10.2848 19.3089 8.17974Z" stroke="black" stroke-width="1.5" stroke-miterlimit="10" stroke-linecap="round" stroke-linejoin="round"/>
<path d="M15.2121 4.08268C13.6202 5.67452 13.0328 7.89021 13.449 9.94279L21.0722 2.31964C19.0195 1.90341 16.8039 2.49084 15.2121 4.08268Z" stroke="black" stroke-width="1.5" stroke-miterlimit="10" stroke-linecap="round" stroke-linejoin="round"/>
<path d="M13.1899 11.8226C14.3212 10.6913 13.5319 8.06764 11.4268 5.96259C9.32177 3.85755 6.69815 3.06821 5.5668 4.19956C4.43545 5.33091 5.22479 7.95453 7.32984 10.0596C9.43488 12.1646 12.0585 12.954 13.1899 11.8226Z" stroke="black" stroke-width="1.5" stroke-miterlimit="10" stroke-linecap="round" stroke-linejoin="round"/>
<path d="M7.33024 10.0595C8.92208 11.6513 11.1378 12.2387 13.1903 11.8225L5.5672 4.19946C5.15097 6.25204 5.7384 8.46763 7.33024 10.0595Z" stroke="black" stroke-width="1.5" stroke-miterlimit="10" stroke-linecap="round" stroke-linejoin="round"/>
<path d="M13.3196 4.73682V29.5838" stroke="black" stroke-width="1.5" stroke-miterlimit="10" stroke-linecap="round" stroke-linejoin="round"/>
<path d="M16.8136 19.9741V15.3474H9.82507V27.4301C9.82507 27.8957 9.70246 28.3531 9.46968 28.7564L1.63112 42.3331C0.469172 44.3456 1.92159 46.8612 4.2454 46.8612H20.7554C19.5836 46.8609 18.6337 45.9109 18.6337 44.7391V41.2996H24.4107L17.1689 28.7564C16.9361 28.3532 16.8135 27.8957 16.8135 27.4301V23.2253" stroke="black" stroke-width="1.5" stroke-miterlimit="10" stroke-linecap="round" stroke-linejoin="round"/>
<path d="M8.54565 15.3474H18.0935" stroke="black" stroke-width="1.5" stroke-miterlimit="10" stroke-linecap="round" stroke-linejoin="round"/>
<path d="M18.6336 44.7393V41.2998H24.4106L19.5469 32.8755H7.09162L1.63112 42.3333C0.469173 44.3457 1.92159 46.8614 4.2454 46.8614H20.7555C19.5836 46.8613 18.6336 45.9112 18.6336 44.7393Z" stroke="black" stroke-width="1.5" stroke-miterlimit="10" stroke-linecap="round" stroke-linejoin="round"/>
<path d="M37.4022 41.2996H18.6333V44.7391C18.6333 45.911 19.5835 46.8612 20.7554 46.8612H42.3794C43.5514 46.8612 44.5016 45.911 44.5016 44.7391V41.2996H40.6533" stroke="black" stroke-width="1.5" stroke-miterlimit="10" stroke-linecap="round" stroke-linejoin="round"/>
<path d="M44.4626 41.2996V37.7859C44.4626 37.512 44.2406 37.29 43.9667 37.29H19.1296C18.8558 37.29 18.6338 37.512 18.6338 37.7859V41.2996" stroke="black" stroke-width="1.5" stroke-miterlimit="10" stroke-linecap="round" stroke-linejoin="round"/>
<circle cx="9.39223" cy="37.6303" r="0.696669" fill="black"/>
<circle cx="7.27016" cy="41.0255" r="0.696669" fill="black"/>
<circle cx="11.5145" cy="42.0863" r="0.696669" fill="black"/>
<path d="M7.09155 32.8751H19.5469L17.6465 29.5835H8.99197L7.09155 32.8751Z" stroke="black" stroke-width="1.5" stroke-miterlimit="10" stroke-linecap="round" stroke-linejoin="round"/>
<path d="M9.99902 18.3677H10.9907" stroke="black" stroke-width="1.5" stroke-miterlimit="10" stroke-linecap="round" stroke-linejoin="round"/>
<path d="M9.99902 21.3967H10.9907" stroke="black" stroke-width="1.5" stroke-miterlimit="10" stroke-linecap="round" stroke-linejoin="round"/>
<path d="M9.99902 24.4268H10.9907" stroke="black" stroke-width="1.5" stroke-miterlimit="10" stroke-linecap="round" stroke-linejoin="round"/>
<path d="M36.34 18.9525C35.8312 17.7032 34.6055 16.8223 33.1733 16.8223C31.2853 16.8223 29.7546 18.3529 29.7546 20.241C29.7546 22.129 31.2853 23.6597 33.1733 23.6597C34.3308 23.6597 35.3533 23.0838 35.9717 22.2037" stroke="black" stroke-width="1.5" stroke-miterlimit="10" stroke-linecap="round" stroke-linejoin="round"/>
<path d="M37.2357 8.94572C36.9152 9.28411 36.4628 9.49636 35.96 9.49636C34.9889 9.49636 34.2018 8.70922 34.2018 7.73815C34.2018 7.2673 34.388 6.84066 34.6894 6.52502C34.2018 6.29651 33.6943 6.17529 33.1732 6.17529C29.4087 6.17529 26.3569 12.4726 26.3569 20.2408C26.3569 28.0089 29.4087 34.3062 33.1732 34.3062C36.9378 34.3062 39.9895 28.0089 39.9895 20.2408C39.9896 15.6139 38.9068 11.5091 37.2357 8.94572Z" stroke="black" stroke-width="1.5" stroke-miterlimit="10" stroke-linecap="round" stroke-linejoin="round"/>
<path d="M45.63 25.9062C44.6591 25.9062 43.8718 25.119 43.8718 24.148C43.8718 23.3819 44.3627 22.7321 45.0463 22.4911C43.6905 19.7299 40.6477 16.6854 36.5815 14.3377C29.8541 10.4537 22.8746 9.94799 20.9923 13.2081C19.11 16.4683 23.0378 22.2599 29.7651 26.144C36.4925 30.028 43.472 30.5338 45.3543 27.2736C45.5967 26.8538 45.742 26.3919 45.7982 25.8976C45.7428 25.9029 45.6868 25.9062 45.63 25.9062Z" stroke="black" stroke-width="1.5" stroke-miterlimit="10" stroke-linecap="round" stroke-linejoin="round"/>
<path d="M45.3543 13.2082C43.472 9.94793 36.4925 10.4537 29.7651 14.3378C23.0377 18.2219 19.11 24.0134 20.9923 27.2736C21.2919 27.7925 21.721 28.2156 22.2573 28.5453C22.4686 27.8112 23.1438 27.2736 23.9458 27.2736C24.9168 27.2736 25.704 28.0608 25.704 29.0318C25.704 29.1643 25.6881 29.2928 25.6604 29.4169C28.6888 29.514 32.6775 28.3981 36.5815 26.1441C43.3088 22.2599 47.2366 16.4684 45.3543 13.2082Z" stroke="black" stroke-width="1.5" stroke-miterlimit="10" stroke-linecap="round" stroke-linejoin="round"/>
<path d="M35.9599 9.4964C36.9309 9.4964 37.7181 8.70922 37.7181 7.73819C37.7181 6.76716 36.9309 5.97998 35.9599 5.97998C34.9888 5.97998 34.2017 6.76716 34.2017 7.73819C34.2017 8.70922 34.9888 9.4964 35.9599 9.4964Z" stroke="black" stroke-width="1.5" stroke-miterlimit="10" stroke-linecap="round" stroke-linejoin="round"/>
<path d="M23.946 30.7901C24.917 30.7901 25.7042 30.0029 25.7042 29.0319C25.7042 28.0609 24.917 27.2737 23.946 27.2737C22.9749 27.2737 22.1877 28.0609 22.1877 29.0319C22.1877 30.0029 22.9749 30.7901 23.946 30.7901Z" stroke="black" stroke-width="1.5" stroke-miterlimit="10" stroke-linecap="round" stroke-linejoin="round"/>
<path d="M45.6298 25.9061C46.6008 25.9061 47.388 25.1189 47.388 24.1479C47.388 23.1768 46.6008 22.3896 45.6298 22.3896C44.6588 22.3896 43.8716 23.1768 43.8716 24.1479C43.8716 25.1189 44.6588 25.9061 45.6298 25.9061Z" stroke="black" stroke-width="1.5" stroke-miterlimit="10" stroke-linecap="round" stroke-linejoin="round"/>
</svg>
