<svg width="47" height="47" viewBox="0 0 47 47" fill="none" xmlns="http://www.w3.org/2000/svg">
<mask id="mask0_621_280" style="mask-type:luminance" maskUnits="userSpaceOnUse" x="0" y="0" width="47" height="47">
<path d="M0.222656 0.483154H46.3887V46.6492H0.222656V0.483154Z" fill="white"/>
</mask>
<g mask="url(#mask0_621_280)">
<path d="M40.9271 32.7009L42.2102 31.4204C42.591 31.037 42.591 30.4133 42.2102 30.0299L39.8255 27.6476C39.4446 27.2642 38.8184 27.2642 38.435 27.6476L37.1545 28.9282" stroke="black" stroke-width="1.5" stroke-miterlimit="10" stroke-linecap="round" stroke-linejoin="round"/>
<path d="M39.6745 2.22049L36.1652 3.52658C35.2272 3.87417 34.9767 3.99942 34.1792 4.79686L30.2737 8.70258L33.1926 11.624L37.0981 7.71849C37.8981 6.91843 38.0208 6.66794 38.3709 5.72992L39.6745 2.22049Z" stroke="black" stroke-width="1.5" stroke-miterlimit="10" stroke-linecap="round" stroke-linejoin="round"/>
<path d="M39.9436 1.95459L40.7385 1.15967" stroke="black" stroke-width="1.5" stroke-miterlimit="10" stroke-linecap="round" stroke-linejoin="round"/>
<path d="M30.2684 8.69749L33.1975 11.6292C33.6959 12.1251 33.6959 12.9405 33.1975 13.4364L20.1775 26.4592L15.4387 21.7204L28.4588 8.69749C28.9572 8.19904 29.77 8.19904 30.2684 8.69749Z" stroke="black" stroke-width="1.5" stroke-miterlimit="10" stroke-linecap="round" stroke-linejoin="round"/>
<path d="M3.94006 34.5208L7.37528 37.9562L5.59888 39.7326C5.33045 40.0009 4.8934 40.0009 4.62506 39.7326L2.16366 37.2711C1.89532 37.0027 1.89532 36.5657 2.16366 36.2973L3.94006 34.5208Z" stroke="black" stroke-width="1.5" stroke-miterlimit="10" stroke-linecap="round" stroke-linejoin="round"/>
<path d="M13.2588 26.354L11.3521 24.4472C11.0555 24.1507 11.0555 23.6676 11.3521 23.3737L13.6831 21.04C13.9796 20.7435 14.4626 20.7435 14.7591 21.04L20.8576 27.1387C21.1515 27.4327 21.1515 27.9157 20.8576 28.2122L18.524 30.5458C18.2276 30.8399 17.7444 30.8399 17.448 30.5458L15.4799 28.5777" stroke="black" stroke-width="1.5" stroke-miterlimit="10" stroke-linecap="round" stroke-linejoin="round"/>
<path d="M16.8987 29.9966L8.75286 38.1452C8.42573 38.4698 7.89148 38.4698 7.56435 38.1452L3.7534 34.3341C3.42627 34.007 3.42627 33.4702 3.7534 33.1457L11.9018 24.997" stroke="black" stroke-width="1.5" stroke-miterlimit="10" stroke-linecap="round" stroke-linejoin="round"/>
<path d="M21.2873 32.972L9.57589 44.6837C7.87623 46.3834 5.09527 46.3834 3.3956 44.6837C1.69593 42.9839 1.69593 40.2029 3.3956 38.5033" stroke="black" stroke-width="1.5" stroke-miterlimit="10" stroke-linecap="round" stroke-linejoin="round"/>
<path d="M21.2874 32.9717L35.2428 19.0157C37.3873 16.8712 40.8966 16.8712 43.0411 19.0157C45.1856 21.1603 45.1856 24.6697 43.0411 26.8142L41.0167 28.8386" stroke="black" stroke-width="1.5" stroke-miterlimit="10" stroke-linecap="round" stroke-linejoin="round"/>
<path d="M9.47656 27.4229L14.476 32.4199" stroke="black" stroke-width="1.5" stroke-miterlimit="10" stroke-linecap="round" stroke-linejoin="round"/>
<path d="M20.7939 16.3627L21.7779 17.3467" stroke="black" stroke-width="1.5" stroke-miterlimit="10" stroke-linecap="round" stroke-linejoin="round"/>
<path d="M25.5323 21.104L24.5483 20.1199" stroke="black" stroke-width="1.5" stroke-miterlimit="10" stroke-linecap="round" stroke-linejoin="round"/>
<path d="M18.1152 19.0416L19.0993 20.0256" stroke="black" stroke-width="1.5" stroke-miterlimit="10" stroke-linecap="round" stroke-linejoin="round"/>
<path d="M22.857 23.7803L21.8704 22.7962" stroke="black" stroke-width="1.5" stroke-miterlimit="10" stroke-linecap="round" stroke-linejoin="round"/>
<path d="M15.4387 21.7203L16.4228 22.7043" stroke="black" stroke-width="1.5" stroke-miterlimit="10" stroke-linecap="round" stroke-linejoin="round"/>
<path d="M20.1779 26.4592L19.1938 25.4751" stroke="black" stroke-width="1.5" stroke-miterlimit="10" stroke-linecap="round" stroke-linejoin="round"/>
<path d="M23.4702 13.6867L24.4568 14.6707" stroke="black" stroke-width="1.5" stroke-miterlimit="10" stroke-linecap="round" stroke-linejoin="round"/>
<path d="M28.2114 18.4253L27.2273 17.4412" stroke="black" stroke-width="1.5" stroke-miterlimit="10" stroke-linecap="round" stroke-linejoin="round"/>
<path d="M30.3147 36.6604L26.2839 40.6887C25.7369 41.2356 24.8424 41.2356 24.2928 40.6887C23.7458 40.1416 23.7458 39.2445 24.2928 38.6976L28.3236 34.6692" stroke="black" stroke-width="1.5" stroke-miterlimit="10" stroke-linecap="round" stroke-linejoin="round"/>
<path d="M33.1976 39.5432L29.1668 43.5715C28.6199 44.1185 28.6199 45.0156 29.1668 45.5627C29.7164 46.1096 30.6109 46.1096 31.1579 45.5627L35.1887 41.5343" stroke="black" stroke-width="1.5" stroke-miterlimit="10" stroke-linecap="round" stroke-linejoin="round"/>
<path d="M35.3374 32.2047L37.6505 34.5205" stroke="black" stroke-width="1.5" stroke-miterlimit="10" stroke-linecap="round" stroke-linejoin="round"/>
<path d="M35.0716 37.0361L38.3943 40.3589C38.6422 40.6042 38.6422 41.0081 38.3943 41.2534L37.0985 42.5494C36.8531 42.7947 36.4492 42.7947 36.2039 42.5494L27.3066 33.6519C27.0612 33.4064 27.0612 33.0027 27.3066 32.7572L28.6025 31.4613C28.8478 31.216 29.2517 31.216 29.497 31.4613L32.876 34.8379" stroke="black" stroke-width="1.5" stroke-miterlimit="10" stroke-linecap="round" stroke-linejoin="round"/>
<path d="M29.8701 31.8344L32.7762 28.9283C33.9801 27.7244 35.9508 27.7244 37.1546 28.9283L40.9271 32.7009C42.1336 33.9048 42.1336 35.8755 40.9271 37.0794L38.0236 39.9856" stroke="black" stroke-width="1.5" stroke-miterlimit="10" stroke-linecap="round" stroke-linejoin="round"/>
</g>
</svg>
