<svg width="44" height="38" viewBox="0 0 44 38" fill="none" xmlns="http://www.w3.org/2000/svg">
<path d="M9.89177 37H6.07397C5.60406 37 5.22314 36.6191 5.22314 36.1492V25.9985C5.22314 25.5286 5.60406 25.1477 6.07397 25.1477H9.89177C10.3617 25.1477 10.7426 25.5286 10.7426 25.9985V36.1492C10.7426 36.6191 10.3617 37 9.89177 37Z" stroke="black" stroke-width="1.5" stroke-miterlimit="10" stroke-linecap="round" stroke-linejoin="round"/>
<path d="M28.7856 37H24.9678C24.4979 37 24.1169 36.619 24.1169 36.1491V29.3752C24.1169 28.9053 24.4979 28.5244 24.9678 28.5244H28.7856C29.2555 28.5244 29.6364 28.9053 29.6364 29.3752V36.1491C29.6364 36.619 29.2555 37 28.7856 37Z" stroke="black" stroke-width="1.5" stroke-miterlimit="10" stroke-linecap="round" stroke-linejoin="round"/>
<path d="M19.3388 37H15.521C15.0511 37 14.6702 36.6191 14.6702 36.1492V22.3171C14.6702 21.8472 15.0511 21.4663 15.521 21.4663H19.3388C19.8087 21.4663 20.1896 21.8472 20.1896 22.3171V36.1492C20.1896 36.6191 19.8087 37 19.3388 37Z" stroke="black" stroke-width="1.5" stroke-miterlimit="10" stroke-linecap="round" stroke-linejoin="round"/>
<path d="M38.2326 36.9999H34.4148C33.9449 36.9999 33.564 36.619 33.564 36.1491V18.2151C33.564 17.7452 33.9449 17.3643 34.4148 17.3643H38.2326C38.7025 17.3643 39.0834 17.7452 39.0834 18.2151V36.1491C39.0834 36.619 38.7025 36.9999 38.2326 36.9999Z" stroke="black" stroke-width="1.5" stroke-miterlimit="10" stroke-linecap="round" stroke-linejoin="round"/>
<path d="M7.98265 20.2277C8.92244 20.2277 9.68429 19.4659 9.68429 18.5261C9.68429 17.5863 8.92244 16.8245 7.98265 16.8245C7.04286 16.8245 6.28101 17.5863 6.28101 18.5261C6.28101 19.4659 7.04286 20.2277 7.98265 20.2277Z" stroke="black" stroke-width="1.5" stroke-miterlimit="10" stroke-linecap="round" stroke-linejoin="round"/>
<path d="M17.4297 13.122C18.3695 13.122 19.1313 12.3602 19.1313 11.4204C19.1313 10.4806 18.3695 9.71875 17.4297 9.71875C16.4899 9.71875 15.728 10.4806 15.728 11.4204C15.728 12.3602 16.4899 13.122 17.4297 13.122Z" stroke="black" stroke-width="1.5" stroke-miterlimit="10" stroke-linecap="round" stroke-linejoin="round"/>
<path d="M26.8769 21.9292C27.8167 21.9292 28.5786 21.1673 28.5786 20.2275C28.5786 19.2877 27.8167 18.5259 26.8769 18.5259C25.9371 18.5259 25.1753 19.2877 25.1753 20.2275C25.1753 21.1673 25.9371 21.9292 26.8769 21.9292Z" stroke="black" stroke-width="1.5" stroke-miterlimit="10" stroke-linecap="round" stroke-linejoin="round"/>
<path d="M36.324 8.79928C37.2637 8.79928 38.0256 8.03743 38.0256 7.09764C38.0256 6.15785 37.2637 5.396 36.324 5.396C35.3842 5.396 34.6223 6.15785 34.6223 7.09764C34.6223 8.03743 35.3842 8.79928 36.324 8.79928Z" stroke="black" stroke-width="1.5" stroke-miterlimit="10" stroke-linecap="round" stroke-linejoin="round"/>
<path d="M9.68408 18.5259L15.7278 11.4202" stroke="black" stroke-width="1.5" stroke-miterlimit="10" stroke-linecap="round" stroke-linejoin="round"/>
<path d="M19.1311 11.4202L25.1748 20.2275" stroke="black" stroke-width="1.5" stroke-miterlimit="10" stroke-linecap="round" stroke-linejoin="round"/>
<path d="M28.5784 20.2275L34.6221 7.09766" stroke="black" stroke-width="1.5" stroke-miterlimit="10" stroke-linecap="round" stroke-linejoin="round"/>
<path d="M33.4793 32.762H29.7212" stroke="black" stroke-width="1.5" stroke-miterlimit="10" stroke-linecap="round" stroke-linejoin="round"/>
<path d="M14.585 32.762H10.8269" stroke="black" stroke-width="1.5" stroke-miterlimit="10" stroke-linecap="round" stroke-linejoin="round"/>
<path d="M5.13753 32.7621H2.92454C1.98439 32.7621 1.2229 32.0006 1.2229 31.0604V2.93821C1.2229 1.99806 1.98439 1.23657 2.92454 1.23657H41.3817C42.3218 1.23657 43.0833 1.99806 43.0833 2.93821V8.92885" stroke="black" stroke-width="1.5" stroke-miterlimit="10" stroke-linecap="round" stroke-linejoin="round"/>
<path d="M24.0316 32.762H20.2744" stroke="black" stroke-width="1.5" stroke-miterlimit="10" stroke-linecap="round" stroke-linejoin="round"/>
<path d="M43.0833 16.6816V31.0605C43.0833 32.0007 42.3218 32.7622 41.3817 32.7622H39.1687" stroke="black" stroke-width="1.5" stroke-miterlimit="10" stroke-linecap="round" stroke-linejoin="round"/>
<circle cx="43.0832" cy="12.8118" r="0.850821" fill="black"/>
</svg>
