<svg width="37" height="38" viewBox="0 0 37 38" fill="none" xmlns="http://www.w3.org/2000/svg">
<g opacity="0.88">
<path fill-rule="evenodd" clip-rule="evenodd" d="M36.043 12.0107V33.3631C36.043 34.4254 35.6215 35.4436 34.8702 36.1937C34.1188 36.945 33.1004 37.3667 32.0382 37.3667H10.6794C9.61716 37.3667 8.59881 36.945 7.84743 36.1937C7.09606 35.4436 6.67463 34.4254 6.67463 33.3631V23.8453C7.32492 23.9614 7.9943 24.0214 8.67702 24.0214C14.9397 24.0214 20.0239 18.9382 20.0239 12.678C20.0239 6.41773 14.9397 1.33452 8.67702 1.33452C8.33185 1.33452 7.99047 1.35053 7.65483 1.37989C8.38904 0.53514 9.47223 0 10.6794 0H24.0286V8.00715C24.0286 9.06943 24.4501 10.0877 25.2015 10.8377C25.9528 11.589 26.9712 12.0107 28.0334 12.0107H36.043ZM14.6842 30.6941V29.3595C14.6842 28.6229 14.0854 28.025 13.3493 28.025C12.6131 28.025 12.0143 28.6229 12.0143 29.3595V30.6941C12.0143 31.4307 12.6131 32.0286 13.3493 32.0286C14.0854 32.0286 14.6842 31.4307 14.6842 30.6941ZM20.0239 30.6941V25.356C20.0239 24.6193 19.4251 24.0214 18.689 24.0214C17.9528 24.0214 17.354 24.6193 17.354 25.356V30.6941C17.354 31.4307 17.9528 32.0286 18.689 32.0286C19.4251 32.0286 20.0239 31.4307 20.0239 30.6941ZM25.3636 30.6941V26.6905C25.3636 25.9538 24.7648 25.356 24.0286 25.356C23.2925 25.356 22.6937 25.9538 22.6937 26.6905V30.6941C22.6937 31.4307 23.2925 32.0286 24.0286 32.0286C24.7648 32.0286 25.3636 31.4307 25.3636 30.6941ZM30.7033 30.6941V21.3524C30.7033 20.6157 30.1045 20.0179 29.3683 20.0179C28.6322 20.0179 28.0334 20.6157 28.0334 21.3524V30.6941C28.0334 31.4307 28.6322 32.0286 29.3683 32.0286C30.1045 32.0286 30.7033 31.4307 30.7033 30.6941ZM26.6985 0.0253522C27.6577 0.134783 28.5521 0.588528 29.2082 1.31051L35.0017 7.68019C35.4346 8.15795 35.7436 8.72779 35.9076 9.34167H28.0334C27.6787 9.34167 27.3393 9.20155 27.0894 8.95066C26.8396 8.7011 26.6985 8.3608 26.6985 8.00715V0.0253522ZM17.251 14.0125C16.6084 18.1669 13.0117 21.3524 8.67702 21.3524C3.88845 21.3524 0 17.4649 0 12.678C0 8.34478 3.18664 4.74824 7.34207 4.10634V11.3435C7.34207 12.8181 8.5378 14.0125 10.0119 14.0125H17.251ZM10.0119 4.10634C13.7326 4.68152 16.677 7.62414 17.251 11.3435H10.0119V4.10634Z" fill="#1D1D1F"/>
</g>
</svg>
