<svg width="37" height="39" viewBox="0 0 37 39" fill="none" xmlns="http://www.w3.org/2000/svg">
<path opacity="0.88" d="M35.1726 29.5704L24.9269 13.1147C24.6086 12.6374 24.4496 12.0541 24.4496 11.5238V2.76293H25.5102C26.2526 2.76293 26.889 2.17959 26.889 1.38412C26.889 0.641662 26.2526 0 25.5102 0H10.4864C9.7439 0 9.10748 0.583335 9.10748 1.38412C9.10748 2.12657 9.7439 2.76293 10.4864 2.76293H11.547V11.4707C11.547 12.0541 11.3879 12.5844 11.0697 13.0617L0.876967 29.5704C-0.236619 31.3788 -0.289703 33.5531 0.717911 35.4092C1.77854 37.2706 3.63996 38.3843 5.76122 38.3843H30.2353C32.3619 38.3843 34.271 37.2706 35.2786 35.4092C36.3393 33.6061 36.2862 31.4318 35.1726 29.5704ZM12.1886 29.6818C11.075 29.6818 10.1734 28.7803 10.1734 27.6613C10.1734 26.5476 11.075 25.6461 12.1886 25.6461C13.3023 25.6461 14.2039 26.5476 14.2039 27.6613C14.2039 28.7803 13.3023 29.6818 12.1886 29.6818ZM21.2093 34.3539C19.9207 34.3539 18.8759 33.3091 18.8759 32.0152C18.8759 30.7265 19.9207 29.6818 21.2093 29.6818C22.5033 29.6818 23.548 30.7265 23.548 32.0152C23.548 33.3091 22.5033 34.3539 21.2093 34.3539ZM19.2206 23.1536C19.2206 22.2415 19.9578 21.5043 20.8646 21.5043C21.7768 21.5043 22.5139 22.2415 22.5139 23.1536C22.5139 24.0604 21.7768 24.7976 20.8646 24.7976C19.9578 24.7976 19.2206 24.0604 19.2206 23.1536ZM20.0956 19.3777C16.8555 18.105 13.7266 17.9989 10.8576 18.7414L13.4614 14.5466C14.0448 13.645 14.3099 12.5844 14.3099 11.4707V2.76293H21.7396V11.4707C21.7396 12.5314 22.0631 13.592 22.5934 14.5466L26.2526 20.4384C24.2374 20.4914 22.1692 20.1732 20.0956 19.3777Z" fill="#1D1D1F"/>
</svg>
